<svg xmlns="http://www.w3.org/2000/svg" width="1240" height="520">
<rect width="100%" height="100%" fill="#ffffff"/>
<rect x="463.22" y="72" width="493.56" height="390" fill="#fff3bf" fill-opacity="0.45"/>
<line x1="75.00" y1="72" x2="75.00" y2="462" stroke="#eef2f7" stroke-width="1"/>
<text x="75.00" y="495" text-anchor="middle" font-family="Arial" font-size="12" fill="#4b5563">0:00</text>
<line x1="169.17" y1="72" x2="169.17" y2="462" stroke="#eef2f7" stroke-width="1"/>
<text x="169.17" y="495" text-anchor="middle" font-family="Arial" font-size="12" fill="#4b5563">2:00</text>
<line x1="263.33" y1="72" x2="263.33" y2="462" stroke="#eef2f7" stroke-width="1"/>
<text x="263.33" y="495" text-anchor="middle" font-family="Arial" font-size="12" fill="#4b5563">4:00</text>
<line x1="357.50" y1="72" x2="357.50" y2="462" stroke="#eef2f7" stroke-width="1"/>
<text x="357.50" y="495" text-anchor="middle" font-family="Arial" font-size="12" fill="#4b5563">6:00</text>
<line x1="451.67" y1="72" x2="451.67" y2="462" stroke="#eef2f7" stroke-width="1"/>
<text x="451.67" y="495" text-anchor="middle" font-family="Arial" font-size="12" fill="#4b5563">8:00</text>
<line x1="545.83" y1="72" x2="545.83" y2="462" stroke="#eef2f7" stroke-width="1"/>
<text x="545.83" y="495" text-anchor="middle" font-family="Arial" font-size="12" fill="#4b5563">10:00</text>
<line x1="640.00" y1="72" x2="640.00" y2="462" stroke="#eef2f7" stroke-width="1"/>
<text x="640.00" y="495" text-anchor="middle" font-family="Arial" font-size="12" fill="#4b5563">12:00</text>
<line x1="734.17" y1="72" x2="734.17" y2="462" stroke="#eef2f7" stroke-width="1"/>
<text x="734.17" y="495" text-anchor="middle" font-family="Arial" font-size="12" fill="#4b5563">14:00</text>
<line x1="828.33" y1="72" x2="828.33" y2="462" stroke="#eef2f7" stroke-width="1"/>
<text x="828.33" y="495" text-anchor="middle" font-family="Arial" font-size="12" fill="#4b5563">16:00</text>
<line x1="922.50" y1="72" x2="922.50" y2="462" stroke="#eef2f7" stroke-width="1"/>
<text x="922.50" y="495" text-anchor="middle" font-family="Arial" font-size="12" fill="#4b5563">18:00</text>
<line x1="1016.67" y1="72" x2="1016.67" y2="462" stroke="#eef2f7" stroke-width="1"/>
<text x="1016.67" y="495" text-anchor="middle" font-family="Arial" font-size="12" fill="#4b5563">20:00</text>
<line x1="1110.83" y1="72" x2="1110.83" y2="462" stroke="#eef2f7" stroke-width="1"/>
<text x="1110.83" y="495" text-anchor="middle" font-family="Arial" font-size="12" fill="#4b5563">22:00</text>
<line x1="1205.00" y1="72" x2="1205.00" y2="462" stroke="#eef2f7" stroke-width="1"/>
<text x="1205.00" y="495" text-anchor="middle" font-family="Arial" font-size="12" fill="#4b5563">24:00</text>
<line x1="75" y1="462.00" x2="1205" y2="462.00" stroke="#eef2f7" stroke-width="1"/>
<text x="65" y="466.00" text-anchor="end" font-family="Arial" font-size="12" fill="#4b5563">20</text>
<line x1="75" y1="416.12" x2="1205" y2="416.12" stroke="#eef2f7" stroke-width="1"/>
<text x="65" y="420.12" text-anchor="end" font-family="Arial" font-size="12" fill="#4b5563">30</text>
<line x1="75" y1="370.24" x2="1205" y2="370.24" stroke="#eef2f7" stroke-width="1"/>
<text x="65" y="374.24" text-anchor="end" font-family="Arial" font-size="12" fill="#4b5563">40</text>
<line x1="75" y1="324.35" x2="1205" y2="324.35" stroke="#eef2f7" stroke-width="1"/>
<text x="65" y="328.35" text-anchor="end" font-family="Arial" font-size="12" fill="#4b5563">50</text>
<line x1="75" y1="278.47" x2="1205" y2="278.47" stroke="#eef2f7" stroke-width="1"/>
<text x="65" y="282.47" text-anchor="end" font-family="Arial" font-size="12" fill="#4b5563">60</text>
<line x1="75" y1="232.59" x2="1205" y2="232.59" stroke="#eef2f7" stroke-width="1"/>
<text x="65" y="236.59" text-anchor="end" font-family="Arial" font-size="12" fill="#4b5563">70</text>
<line x1="75" y1="186.71" x2="1205" y2="186.71" stroke="#eef2f7" stroke-width="1"/>
<text x="65" y="190.71" text-anchor="end" font-family="Arial" font-size="12" fill="#4b5563">80</text>
<line x1="75" y1="140.82" x2="1205" y2="140.82" stroke="#eef2f7" stroke-width="1"/>
<text x="65" y="144.82" text-anchor="end" font-family="Arial" font-size="12" fill="#4b5563">90</text>
<line x1="75" y1="94.94" x2="1205" y2="94.94" stroke="#eef2f7" stroke-width="1"/>
<text x="65" y="98.94" text-anchor="end" font-family="Arial" font-size="12" fill="#4b5563">100</text>
<rect x="75" y="72" width="1130" height="390" fill="none" stroke="#9ca3af" stroke-width="1.2"/>
<polyline fill="none" stroke="#7c3aed" stroke-width="3" points="75.00,416.12 75.94,416.12 76.88,416.12 77.83,416.12 78.77,416.12 79.71,416.12 80.65,416.12 81.59,416.12 82.53,416.12 83.47,416.12 84.42,416.12 85.36,416.12 86.30,416.12 87.24,416.12 88.18,416.12 89.12,416.12 90.07,416.12 91.01,416.12 91.95,416.12 92.89,416.12 93.83,416.12 94.78,416.12 95.72,416.12 96.66,416.12 97.60,416.12 98.54,416.12 99.48,416.12 100.43,416.12 101.37,416.12 102.31,416.12 103.25,416.12 104.19,416.12 105.13,416.12 106.08,416.12 107.02,416.12 107.96,416.12 108.90,416.12 109.84,416.12 110.78,416.12 111.72,416.12 112.67,416.12 113.61,416.12 114.55,416.12 115.49,416.12 116.43,416.12 117.38,416.12 118.32,416.12 119.26,416.12 120.20,416.12 121.14,416.12 122.08,416.12 123.03,416.12 123.97,416.12 124.91,416.12 125.85,416.12 126.79,416.12 127.73,416.12 128.67,416.12 129.62,416.12 130.56,416.12 131.50,416.12 132.44,416.12 133.38,416.12 134.32,416.12 135.27,416.12 136.21,416.12 137.15,416.12 138.09,416.12 139.03,416.12 139.97,416.12 140.92,416.12 141.86,416.12 142.80,416.12 143.74,416.12 144.68,416.12 145.62,416.12 146.57,416.12 147.51,416.12 148.45,416.12 149.39,416.12 150.33,416.12 151.28,416.12 152.22,416.12 153.16,416.12 154.10,416.12 155.04,416.12 155.98,416.12 156.93,416.12 157.87,416.12 158.81,416.12 159.75,416.12 160.69,416.12 161.63,416.12 162.57,416.12 163.52,416.12 164.46,416.12 165.40,416.12 166.34,416.12 167.28,416.12 168.23,416.12 169.17,416.12 170.11,416.12 171.05,416.12 171.99,416.12 172.93,416.12 173.88,416.12 174.82,416.12 175.76,416.12 176.70,416.12 177.64,416.12 178.58,416.12 179.53,416.12 180.47,416.12 181.41,416.12 182.35,416.12 183.29,416.12 184.23,416.12 185.17,416.12 186.12,416.12 187.06,416.12 188.00,416.12 188.94,416.12 189.88,416.12 190.82,416.12 191.77,416.12 192.71,416.12 193.65,416.12 194.59,416.12 195.53,416.12 196.47,416.12 197.42,416.12 198.36,416.12 199.30,416.12 200.24,416.12 201.18,416.12 202.12,416.12 203.07,416.12 204.01,416.12 204.95,416.12 205.89,416.12 206.83,416.12 207.78,416.12 208.72,416.12 209.66,416.12 210.60,416.12 211.54,416.12 212.48,416.12 213.43,416.12 214.37,416.12 215.31,416.12 216.25,416.12 217.19,416.12 218.13,416.12 219.07,416.12 220.02,416.12 220.96,416.12 221.90,416.12 222.84,416.12 223.78,416.12 224.72,416.12 225.67,416.12 226.61,416.12 227.55,416.12 228.49,416.12 229.43,416.12 230.37,416.12 231.32,416.12 232.26,416.12 233.20,416.12 234.14,416.12 235.08,416.12 236.02,416.12 236.97,416.12 237.91,416.12 238.85,416.12 239.79,416.12 240.73,416.12 241.67,416.12 242.62,416.12 243.56,416.12 244.50,416.12 245.44,416.12 246.38,416.12 247.32,416.12 248.27,416.12 249.21,416.12 250.15,416.12 251.09,416.12 252.03,416.12 252.97,416.12 253.92,416.12 254.86,416.12 255.80,416.12 256.74,416.12 257.68,416.12 258.62,416.12 259.57,416.12 260.51,416.12 261.45,416.12 262.39,416.12 263.33,416.12 264.27,416.12 265.22,416.12 266.16,416.12 267.10,416.12 268.04,416.12 268.98,416.12 269.92,416.12 270.87,416.12 271.81,416.12 272.75,416.12 273.69,416.12 274.63,416.12 275.57,416.12 276.52,416.12 277.46,416.12 278.40,416.12 279.34,416.12 280.28,416.12 281.23,416.12 282.17,416.12 283.11,416.12 284.05,416.12 284.99,416.12 285.93,416.12 286.88,416.12 287.82,416.12 288.76,416.12 289.70,416.12 290.64,416.12 291.58,416.12 292.52,416.12 293.47,416.12 294.41,416.12 295.35,416.12 296.29,416.12 297.23,416.12 298.18,416.12 299.12,416.12 300.06,416.12 301.00,416.12 301.94,416.12 302.88,416.12 303.83,416.12 304.77,416.12 305.71,416.12 306.65,416.12 307.59,416.12 308.53,416.12 309.48,416.12 310.42,416.12 311.36,416.12 312.30,416.12 313.24,416.12 314.18,416.12 315.12,416.12 316.07,416.12 317.01,416.12 317.95,416.12 318.89,416.12 319.83,416.12 320.77,416.12 321.72,416.12 322.66,416.12 323.60,416.12 324.54,416.12 325.48,416.12 326.43,416.12 327.37,416.12 328.31,416.12 329.25,416.12 330.19,416.12 331.13,416.12 332.07,416.12 333.02,416.12 333.96,416.12 334.90,416.12 335.84,416.12 336.78,416.12 337.73,416.12 338.67,416.12 339.61,416.12 340.55,416.12 341.49,416.12 342.43,416.12 343.38,416.12 344.32,416.12 345.26,416.12 346.20,416.12 347.14,416.12 348.08,416.12 349.03,416.12 349.97,416.12 350.91,416.12 351.85,416.12 352.79,416.12 353.73,416.12 354.68,416.12 355.62,416.12 356.56,416.12 357.50,416.12 358.44,416.12 359.38,416.12 360.32,416.12 361.27,416.12 362.21,416.12 363.15,416.12 364.09,416.12 365.03,416.12 365.98,416.12 366.92,416.12 367.86,416.12 368.80,416.12 369.74,416.12 370.68,416.12 371.62,416.12 372.57,416.12 373.51,416.12 374.45,416.12 375.39,416.12 376.33,416.12 377.28,416.12 378.22,416.12 379.16,416.12 380.10,416.12 381.04,416.12 381.98,416.12 382.93,416.12 383.87,416.12 384.81,416.12 385.75,416.12 386.69,416.12 387.63,416.12 388.58,416.12 389.52,416.12 390.46,416.12 391.40,416.12 392.34,416.12 393.28,416.12 394.23,416.12 395.17,416.12 396.11,416.12 397.05,416.12 397.99,416.12 398.93,416.12 399.88,416.12 400.82,416.12 401.76,416.12 402.70,416.12 403.64,416.12 404.58,416.12 405.52,416.12 406.47,416.12 407.41,416.12 408.35,416.12 409.29,416.12 410.23,416.12 411.18,416.12 412.12,416.12 413.06,416.12 414.00,416.12 414.94,416.12 415.88,416.12 416.82,416.12 417.77,416.12 418.71,416.12 419.65,416.12 420.59,416.12 421.53,416.12 422.48,416.12 423.42,416.12 424.36,416.12 425.30,416.12 426.24,416.12 427.18,416.12 428.12,416.12 429.07,416.12 430.01,416.12 430.95,416.12 431.89,416.12 432.83,416.12 433.77,416.12 434.72,416.12 435.66,416.12 436.60,416.12 437.54,416.12 438.48,416.12 439.43,416.12 440.37,416.12 441.31,416.12 442.25,416.12 443.19,416.12 444.13,416.12 445.07,416.12 446.02,416.12 446.96,416.12 447.90,416.12 448.84,416.12 449.78,416.12 450.73,416.12 451.67,416.12 452.61,416.12 453.55,416.12 454.49,416.12 455.43,416.12 456.37,416.12 457.32,416.12 458.26,416.12 459.20,416.12 460.14,416.12 461.08,416.12 462.03,416.12 462.97,416.12 463.91,416.12 464.85,416.12 465.79,416.12 466.73,416.12 467.67,416.12 468.62,416.12 469.56,416.12 470.50,416.12 471.44,416.12 472.38,416.11 473.33,416.11 474.27,416.11 475.21,416.10 476.15,416.09 477.09,416.08 478.03,416.06 478.97,416.04 479.92,416.01 480.86,415.97 481.80,415.93 482.74,415.87 483.68,415.80 484.62,415.72 485.57,415.62 486.51,415.51 487.45,415.37 488.39,415.21 489.33,415.03 490.27,414.82 491.22,414.58 492.16,414.30 493.10,414.00 494.04,413.65 494.98,413.27 495.93,412.85 496.87,412.38 497.81,411.86 498.75,411.30 499.69,410.68 500.63,410.01 501.57,409.28 502.52,408.49 503.46,407.64 504.40,406.73 505.34,405.75 506.28,404.71 507.23,403.59 508.17,402.41 509.11,401.15 510.05,399.83 510.99,398.42 511.93,396.95 512.88,395.39 513.82,393.76 514.76,392.06 515.70,390.27 516.64,388.41 517.58,386.47 518.53,384.45 519.47,382.36 520.41,380.18 521.35,377.94 522.29,375.61 523.23,373.21 524.17,370.74 525.12,368.20 526.06,365.58 527.00,362.89 527.94,360.14 528.88,357.32 529.83,354.44 530.77,351.49 531.71,348.49 532.65,345.42 533.59,342.30 534.53,339.13 535.47,335.90 536.42,332.63 537.36,329.31 538.30,325.95 539.24,322.55 540.18,319.11 541.12,315.64 542.07,312.14 543.01,308.60 543.95,305.04 544.89,301.46 545.83,297.85 546.77,294.23 547.72,290.60 548.66,286.95 549.60,283.29 550.54,279.63 551.48,275.97 552.43,272.30 553.37,268.64 554.31,264.98 555.25,261.33 556.19,257.70 557.13,254.07 558.08,250.46 559.02,246.87 559.96,243.30 560.90,239.75 561.84,236.22 562.78,232.72 563.73,229.26 564.67,225.82 565.61,222.41 566.55,219.04 567.49,215.71 568.43,212.42 569.38,209.16 570.32,205.95 571.26,202.78 572.20,199.65 573.14,196.57 574.08,193.54 575.02,190.55 575.97,187.61 576.91,184.72 577.85,181.88 578.79,179.09 579.73,176.36 580.67,173.67 581.62,171.04 582.56,168.47 583.50,165.94 584.44,163.47 585.38,161.06 586.32,158.70 587.27,156.39 588.21,154.14 589.15,151.94 590.09,149.80 591.03,147.71 591.98,145.67 592.92,143.69 593.86,141.76 594.80,139.89 595.74,138.06 596.68,136.29 597.62,134.57 598.57,132.90 599.51,131.29 600.45,129.72 601.39,128.20 602.33,126.73 603.27,125.31 604.22,123.93 605.16,122.60 606.10,121.32 607.04,120.08 607.98,118.88 608.92,117.73 609.87,116.62 610.81,115.55 611.75,114.52 612.69,113.53 613.63,112.58 614.58,111.66 615.52,110.79 616.46,109.94 617.40,109.14 618.34,108.37 619.28,107.63 620.23,106.92 621.17,106.24 622.11,105.59 623.05,104.98 623.99,104.39 624.93,103.83 625.88,103.29 626.82,102.78 627.76,102.30 628.70,101.84 629.64,101.40 630.58,100.99 631.52,100.59 632.47,100.22 633.41,99.87 634.35,99.53 635.29,99.22 636.23,98.92 637.17,98.64 638.12,98.37 639.06,98.12 640.00,97.89 640.94,97.67 641.88,97.46 642.83,97.27 643.77,97.09 644.71,96.92 645.65,96.76 646.59,96.61 647.53,96.47 648.47,96.34 649.42,96.22 650.36,96.11 651.30,96.01 652.24,95.91 653.18,95.82 654.13,95.74 655.07,95.67 656.01,95.60 656.95,95.53 657.89,95.47 658.83,95.42 659.77,95.37 660.72,95.32 661.66,95.28 662.60,95.25 663.54,95.21 664.48,95.18 665.42,95.15 666.37,95.13 667.31,95.11 668.25,95.09 669.19,95.07 670.13,95.05 671.07,95.04 672.02,95.02 672.96,95.01 673.90,95.00 674.84,94.99 675.78,94.99 676.73,94.98 677.67,94.97 678.61,94.97 679.55,94.96 680.49,94.96 681.43,94.96 682.38,94.95 683.32,94.95 684.26,94.95 685.20,94.95 686.14,94.95 687.08,94.95 688.02,94.94 688.97,94.94 689.91,94.94 690.85,94.94 691.79,94.94 692.73,94.94 693.67,94.94 694.62,94.94 695.56,94.94 696.50,94.94 697.44,94.94 698.38,94.94 699.33,94.94 700.27,94.94 701.21,94.94 702.15,94.94 703.09,94.94 704.03,94.94 704.98,94.94 705.92,94.94 706.86,94.94 707.80,94.94 708.74,94.94 709.68,94.94 710.62,94.94 711.57,94.94 712.51,94.94 713.45,94.94 714.39,94.94 715.33,94.94 716.27,94.94 717.22,94.94 718.16,94.94 719.10,94.94 720.04,94.94 720.98,94.94 721.92,94.94 722.87,94.94 723.81,94.94 724.75,94.94 725.69,94.94 726.63,94.94 727.58,94.94 728.52,94.94 729.46,94.94 730.40,94.94 731.34,94.94 732.28,94.94 733.23,94.95 734.17,94.95 735.11,94.95 736.05,94.95 736.99,94.95 737.93,94.95 738.88,94.96 739.82,94.96 740.76,94.96 741.70,94.97 742.64,94.97 743.58,94.98 744.52,94.99 745.47,95.00 746.41,95.01 747.35,95.02 748.29,95.03 749.23,95.04 750.18,95.06 751.12,95.07 752.06,95.09 753.00,95.11 753.94,95.14 754.88,95.16 755.83,95.19 756.77,95.22 757.71,95.26 758.65,95.30 759.59,95.34 760.53,95.39 761.48,95.44 762.42,95.49 763.36,95.55 764.30,95.62 765.24,95.69 766.18,95.77 767.12,95.85 768.07,95.94 769.01,96.04 769.95,96.15 770.89,96.26 771.83,96.38 772.78,96.51 773.72,96.66 774.66,96.81 775.60,96.97 776.54,97.14 777.48,97.33 778.42,97.53 779.37,97.74 780.31,97.96 781.25,98.20 782.19,98.46 783.13,98.73 784.08,99.01 785.02,99.32 785.96,99.64 786.90,99.98 787.84,100.34 788.78,100.72 789.72,101.12 790.67,101.54 791.61,101.98 792.55,102.45 793.49,102.94 794.43,103.46 795.38,104.00 796.32,104.57 797.26,105.17 798.20,105.80 799.14,106.45 800.08,107.14 801.02,107.86 801.97,108.61 802.91,109.39 803.85,110.21 804.79,111.06 805.73,111.95 806.67,112.88 807.62,113.84 808.56,114.84 809.50,115.88 810.44,116.97 811.38,118.09 812.32,119.26 813.27,120.47 814.21,121.72 815.15,123.02 816.09,124.36 817.03,125.75 817.98,127.19 818.92,128.68 819.86,130.21 820.80,131.80 821.74,133.43 822.68,135.12 823.62,136.85 824.57,138.64 825.51,140.48 826.45,142.37 827.39,144.32 828.33,146.32 829.27,148.37 830.22,150.47 831.16,152.64 832.10,154.85 833.04,157.12 833.98,159.44 834.92,161.82 835.87,164.26 836.81,166.74 837.75,169.28 838.69,171.88 839.63,174.53 840.58,177.23 841.52,179.98 842.46,182.78 843.40,185.64 844.34,188.54 845.28,191.50 846.23,194.50 847.17,197.55 848.11,200.64 849.05,203.79 849.99,206.97 850.93,210.20 851.88,213.46 852.82,216.77 853.76,220.12 854.70,223.50 855.64,226.91 856.58,230.36 857.52,233.84 858.47,237.34 859.41,240.88 860.35,244.43 861.29,248.01 862.23,251.61 863.17,255.23 864.12,258.86 865.06,262.50 866.00,266.15 866.94,269.81 867.88,273.47 868.83,277.14 869.77,280.80 870.71,284.46 871.65,288.12 872.59,291.76 873.53,295.39 874.48,299.01 875.42,302.60 876.36,306.18 877.30,309.73 878.24,313.26 879.18,316.75 880.12,320.22 881.07,323.64 882.01,327.03 882.95,330.38 883.89,333.68 884.83,336.94 885.77,340.15 886.72,343.30 887.66,346.41 888.60,349.45 889.54,352.44 890.48,355.36 891.43,358.23 892.37,361.03 893.31,363.76 894.25,366.42 895.19,369.02 896.13,371.54 897.08,373.99 898.02,376.36 898.96,378.66 899.90,380.89 900.84,383.03 901.78,385.10 902.72,387.10 903.67,389.01 904.61,390.85 905.55,392.61 906.49,394.29 907.43,395.90 908.37,397.43 909.32,398.88 910.26,400.26 911.20,401.56 912.14,402.80 913.08,403.96 914.03,405.05 914.97,406.07 915.91,407.03 916.85,407.92 917.79,408.75 918.73,409.52 919.68,410.23 920.62,410.88 921.56,411.48 922.50,412.03 923.44,412.53 924.38,412.99 925.32,413.40 926.27,413.77 927.21,414.10 928.15,414.39 929.09,414.66 930.03,414.89 930.97,415.09 931.92,415.26 932.86,415.42 933.80,415.55 934.74,415.66 935.68,415.75 936.63,415.83 937.57,415.89 938.51,415.94 939.45,415.99 940.39,416.02 941.33,416.05 942.28,416.07 943.22,416.08 944.16,416.09 945.10,416.10 946.04,416.11 946.98,416.11 947.92,416.11 948.87,416.12 949.81,416.12 950.75,416.12 951.69,416.12 952.63,416.12 953.57,416.12 954.52,416.12 955.46,416.12 956.40,416.12 957.34,416.12 958.28,416.12 959.23,416.12 960.17,416.12 961.11,416.12 962.05,416.12 962.99,416.12 963.93,416.12 964.88,416.12 965.82,416.12 966.76,416.12 967.70,416.12 968.64,416.12 969.58,416.12 970.52,416.12 971.47,416.12 972.41,416.12 973.35,416.12 974.29,416.12 975.23,416.12 976.17,416.12 977.12,416.12 978.06,416.12 979.00,416.12 979.94,416.12 980.88,416.12 981.83,416.12 982.77,416.12 983.71,416.12 984.65,416.12 985.59,416.12 986.53,416.12 987.48,416.12 988.42,416.12 989.36,416.12 990.30,416.12 991.24,416.12 992.18,416.12 993.12,416.12 994.07,416.12 995.01,416.12 995.95,416.12 996.89,416.12 997.83,416.12 998.77,416.12 999.72,416.12 1000.66,416.12 1001.60,416.12 1002.54,416.12 1003.48,416.12 1004.42,416.12 1005.37,416.12 1006.31,416.12 1007.25,416.12 1008.19,416.12 1009.13,416.12 1010.08,416.12 1011.02,416.12 1011.96,416.12 1012.90,416.12 1013.84,416.12 1014.78,416.12 1015.73,416.12 1016.67,416.12 1017.61,416.12 1018.55,416.12 1019.49,416.12 1020.43,416.12 1021.38,416.12 1022.32,416.12 1023.26,416.12 1024.20,416.12 1025.14,416.12 1026.08,416.12 1027.02,416.12 1027.97,416.12 1028.91,416.12 1029.85,416.12 1030.79,416.12 1031.73,416.12 1032.68,416.12 1033.62,416.12 1034.56,416.12 1035.50,416.12 1036.44,416.12 1037.38,416.12 1038.33,416.12 1039.27,416.12 1040.21,416.12 1041.15,416.12 1042.09,416.12 1043.03,416.12 1043.97,416.12 1044.92,416.12 1045.86,416.12 1046.80,416.12 1047.74,416.12 1048.68,416.12 1049.62,416.12 1050.57,416.12 1051.51,416.12 1052.45,416.12 1053.39,416.12 1054.33,416.12 1055.28,416.12 1056.22,416.12 1057.16,416.12 1058.10,416.12 1059.04,416.12 1059.98,416.12 1060.93,416.12 1061.87,416.12 1062.81,416.12 1063.75,416.12 1064.69,416.12 1065.63,416.12 1066.57,416.12 1067.52,416.12 1068.46,416.12 1069.40,416.12 1070.34,416.12 1071.28,416.12 1072.22,416.12 1073.17,416.12 1074.11,416.12 1075.05,416.12 1075.99,416.12 1076.93,416.12 1077.88,416.12 1078.82,416.12 1079.76,416.12 1080.70,416.12 1081.64,416.12 1082.58,416.12 1083.53,416.12 1084.47,416.12 1085.41,416.12 1086.35,416.12 1087.29,416.12 1088.23,416.12 1089.17,416.12 1090.12,416.12 1091.06,416.12 1092.00,416.12 1092.94,416.12 1093.88,416.12 1094.82,416.12 1095.77,416.12 1096.71,416.12 1097.65,416.12 1098.59,416.12 1099.53,416.12 1100.48,416.12 1101.42,416.12 1102.36,416.12 1103.30,416.12 1104.24,416.12 1105.18,416.12 1106.12,416.12 1107.07,416.12 1108.01,416.12 1108.95,416.12 1109.89,416.12 1110.83,416.12 1111.78,416.12 1112.72,416.12 1113.66,416.12 1114.60,416.12 1115.54,416.12 1116.48,416.12 1117.42,416.12 1118.37,416.12 1119.31,416.12 1120.25,416.12 1121.19,416.12 1122.13,416.12 1123.08,416.12 1124.02,416.12 1124.96,416.12 1125.90,416.12 1126.84,416.12 1127.78,416.12 1128.72,416.12 1129.67,416.12 1130.61,416.12 1131.55,416.12 1132.49,416.12 1133.43,416.12 1134.38,416.12 1135.32,416.12 1136.26,416.12 1137.20,416.12 1138.14,416.12 1139.08,416.12 1140.03,416.12 1140.97,416.12 1141.91,416.12 1142.85,416.12 1143.79,416.12 1144.73,416.12 1145.67,416.12 1146.62,416.12 1147.56,416.12 1148.50,416.12 1149.44,416.12 1150.38,416.12 1151.33,416.12 1152.27,416.12 1153.21,416.12 1154.15,416.12 1155.09,416.12 1156.03,416.12 1156.97,416.12 1157.92,416.12 1158.86,416.12 1159.80,416.12 1160.74,416.12 1161.68,416.12 1162.62,416.12 1163.57,416.12 1164.51,416.12 1165.45,416.12 1166.39,416.12 1167.33,416.12 1168.27,416.12 1169.22,416.12 1170.16,416.12 1171.10,416.12 1172.04,416.12 1172.98,416.12 1173.92,416.12 1174.87,416.12 1175.81,416.12 1176.75,416.12 1177.69,416.12 1178.63,416.12 1179.58,416.12 1180.52,416.12 1181.46,416.12 1182.40,416.12 1183.34,416.12 1184.28,416.12 1185.22,416.12 1186.17,416.12 1187.11,416.12 1188.05,416.12 1188.99,416.12 1189.93,416.12 1190.88,416.12 1191.82,416.12 1192.76,416.12 1193.70,416.12 1194.64,416.12 1195.58,416.12 1196.53,416.12 1197.47,416.12 1198.41,416.12 1199.35,416.12 1200.29,416.12 1201.23,416.12 1202.17,416.12 1203.12,416.12 1204.06,416.12 1204.99,416.12"/>
<text x="620.00" y="34" text-anchor="middle" font-family="Arial" font-size="24" fill="#111827">Courbe luminosite aujourd hui</text>
<text x="620.00" y="56" text-anchor="middle" font-family="Arial" font-size="13" fill="#4b5563">Gamma 2.0, sans plateau, lever 08:14 - coucher 18:43</text>
<text x="83" y="90" font-family="Arial" font-size="13" fill="#7c3aed">Brightness (%)</text>
</svg>