<svg xmlns="http://www.w3.org/2000/svg" width="1280" height="760">
<rect width="100%" height="100%" fill="#ffffff"/>
<rect x="478.52" y="70.00" width="506.67" height="295.00" fill="#fff3bf" fill-opacity="0.45"/>
<rect x="478.52" y="405.00" width="506.67" height="295.00" fill="#fff3bf" fill-opacity="0.45"/>
<line x1="80.00" y1="70.00" x2="80.00" y2="365.00" stroke="#eef2f7" stroke-width="1"/>
<line x1="80.00" y1="405.00" x2="80.00" y2="700.00" stroke="#eef2f7" stroke-width="1"/>
<text x="80.00" y="732" text-anchor="middle" font-family="Arial" font-size="12" fill="#4b5563">0:00</text>
<line x1="176.67" y1="70.00" x2="176.67" y2="365.00" stroke="#eef2f7" stroke-width="1"/>
<line x1="176.67" y1="405.00" x2="176.67" y2="700.00" stroke="#eef2f7" stroke-width="1"/>
<text x="176.67" y="732" text-anchor="middle" font-family="Arial" font-size="12" fill="#4b5563">2:00</text>
<line x1="273.33" y1="70.00" x2="273.33" y2="365.00" stroke="#eef2f7" stroke-width="1"/>
<line x1="273.33" y1="405.00" x2="273.33" y2="700.00" stroke="#eef2f7" stroke-width="1"/>
<text x="273.33" y="732" text-anchor="middle" font-family="Arial" font-size="12" fill="#4b5563">4:00</text>
<line x1="370.00" y1="70.00" x2="370.00" y2="365.00" stroke="#eef2f7" stroke-width="1"/>
<line x1="370.00" y1="405.00" x2="370.00" y2="700.00" stroke="#eef2f7" stroke-width="1"/>
<text x="370.00" y="732" text-anchor="middle" font-family="Arial" font-size="12" fill="#4b5563">6:00</text>
<line x1="466.67" y1="70.00" x2="466.67" y2="365.00" stroke="#eef2f7" stroke-width="1"/>
<line x1="466.67" y1="405.00" x2="466.67" y2="700.00" stroke="#eef2f7" stroke-width="1"/>
<text x="466.67" y="732" text-anchor="middle" font-family="Arial" font-size="12" fill="#4b5563">8:00</text>
<line x1="563.33" y1="70.00" x2="563.33" y2="365.00" stroke="#eef2f7" stroke-width="1"/>
<line x1="563.33" y1="405.00" x2="563.33" y2="700.00" stroke="#eef2f7" stroke-width="1"/>
<text x="563.33" y="732" text-anchor="middle" font-family="Arial" font-size="12" fill="#4b5563">10:00</text>
<line x1="660.00" y1="70.00" x2="660.00" y2="365.00" stroke="#eef2f7" stroke-width="1"/>
<line x1="660.00" y1="405.00" x2="660.00" y2="700.00" stroke="#eef2f7" stroke-width="1"/>
<text x="660.00" y="732" text-anchor="middle" font-family="Arial" font-size="12" fill="#4b5563">12:00</text>
<line x1="756.67" y1="70.00" x2="756.67" y2="365.00" stroke="#eef2f7" stroke-width="1"/>
<line x1="756.67" y1="405.00" x2="756.67" y2="700.00" stroke="#eef2f7" stroke-width="1"/>
<text x="756.67" y="732" text-anchor="middle" font-family="Arial" font-size="12" fill="#4b5563">14:00</text>
<line x1="853.33" y1="70.00" x2="853.33" y2="365.00" stroke="#eef2f7" stroke-width="1"/>
<line x1="853.33" y1="405.00" x2="853.33" y2="700.00" stroke="#eef2f7" stroke-width="1"/>
<text x="853.33" y="732" text-anchor="middle" font-family="Arial" font-size="12" fill="#4b5563">16:00</text>
<line x1="950.00" y1="70.00" x2="950.00" y2="365.00" stroke="#eef2f7" stroke-width="1"/>
<line x1="950.00" y1="405.00" x2="950.00" y2="700.00" stroke="#eef2f7" stroke-width="1"/>
<text x="950.00" y="732" text-anchor="middle" font-family="Arial" font-size="12" fill="#4b5563">18:00</text>
<line x1="1046.67" y1="70.00" x2="1046.67" y2="365.00" stroke="#eef2f7" stroke-width="1"/>
<line x1="1046.67" y1="405.00" x2="1046.67" y2="700.00" stroke="#eef2f7" stroke-width="1"/>
<text x="1046.67" y="732" text-anchor="middle" font-family="Arial" font-size="12" fill="#4b5563">20:00</text>
<line x1="1143.33" y1="70.00" x2="1143.33" y2="365.00" stroke="#eef2f7" stroke-width="1"/>
<line x1="1143.33" y1="405.00" x2="1143.33" y2="700.00" stroke="#eef2f7" stroke-width="1"/>
<text x="1143.33" y="732" text-anchor="middle" font-family="Arial" font-size="12" fill="#4b5563">22:00</text>
<line x1="1240.00" y1="70.00" x2="1240.00" y2="365.00" stroke="#eef2f7" stroke-width="1"/>
<line x1="1240.00" y1="405.00" x2="1240.00" y2="700.00" stroke="#eef2f7" stroke-width="1"/>
<text x="1240.00" y="732" text-anchor="middle" font-family="Arial" font-size="12" fill="#4b5563">24:00</text>
<line x1="80" y1="365.00" x2="1240" y2="365.00" stroke="#eef2f7" stroke-width="1"/>
<line x1="80" y1="330.29" x2="1240" y2="330.29" stroke="#eef2f7" stroke-width="1"/>
<line x1="80" y1="295.59" x2="1240" y2="295.59" stroke="#eef2f7" stroke-width="1"/>
<line x1="80" y1="260.88" x2="1240" y2="260.88" stroke="#eef2f7" stroke-width="1"/>
<line x1="80" y1="226.18" x2="1240" y2="226.18" stroke="#eef2f7" stroke-width="1"/>
<line x1="80" y1="191.47" x2="1240" y2="191.47" stroke="#eef2f7" stroke-width="1"/>
<line x1="80" y1="156.76" x2="1240" y2="156.76" stroke="#eef2f7" stroke-width="1"/>
<line x1="80" y1="122.06" x2="1240" y2="122.06" stroke="#eef2f7" stroke-width="1"/>
<line x1="80" y1="87.35" x2="1240" y2="87.35" stroke="#eef2f7" stroke-width="1"/>
<line x1="80" y1="700.00" x2="1240" y2="700.00" stroke="#eef2f7" stroke-width="1"/>
<line x1="80" y1="665.29" x2="1240" y2="665.29" stroke="#eef2f7" stroke-width="1"/>
<line x1="80" y1="630.59" x2="1240" y2="630.59" stroke="#eef2f7" stroke-width="1"/>
<line x1="80" y1="595.88" x2="1240" y2="595.88" stroke="#eef2f7" stroke-width="1"/>
<line x1="80" y1="561.18" x2="1240" y2="561.18" stroke="#eef2f7" stroke-width="1"/>
<line x1="80" y1="526.47" x2="1240" y2="526.47" stroke="#eef2f7" stroke-width="1"/>
<line x1="80" y1="491.76" x2="1240" y2="491.76" stroke="#eef2f7" stroke-width="1"/>
<line x1="80" y1="457.06" x2="1240" y2="457.06" stroke="#eef2f7" stroke-width="1"/>
<line x1="80" y1="422.35" x2="1240" y2="422.35" stroke="#eef2f7" stroke-width="1"/>
<rect x="80" y="70" width="1160" height="295.0" fill="none" stroke="#9ca3af" stroke-width="1.2"/>
<rect x="80" y="405.0" width="1160" height="295.0" fill="none" stroke="#9ca3af" stroke-width="1.2"/>
<polyline fill="none" stroke="#7c3aed" stroke-width="3" points="80.00,330.29 80.97,330.29 81.93,330.29 82.90,330.29 83.87,330.29 84.83,330.29 85.80,330.29 86.77,330.29 87.73,330.29 88.70,330.29 89.67,330.29 90.63,330.29 91.60,330.29 92.57,330.29 93.53,330.29 94.50,330.29 95.47,330.29 96.43,330.29 97.40,330.29 98.37,330.29 99.33,330.29 100.30,330.29 101.27,330.29 102.23,330.29 103.20,330.29 104.17,330.29 105.13,330.29 106.10,330.29 107.07,330.29 108.03,330.29 109.00,330.29 109.97,330.29 110.93,330.29 111.90,330.29 112.87,330.29 113.83,330.29 114.80,330.29 115.77,330.29 116.73,330.29 117.70,330.29 118.67,330.29 119.63,330.29 120.60,330.29 121.57,330.29 122.53,330.29 123.50,330.29 124.47,330.29 125.43,330.29 126.40,330.29 127.37,330.29 128.33,330.29 129.30,330.29 130.27,330.29 131.23,330.29 132.20,330.29 133.17,330.29 134.13,330.29 135.10,330.29 136.07,330.29 137.03,330.29 138.00,330.29 138.97,330.29 139.93,330.29 140.90,330.29 141.87,330.29 142.83,330.29 143.80,330.29 144.77,330.29 145.73,330.29 146.70,330.29 147.67,330.29 148.63,330.29 149.60,330.29 150.57,330.29 151.53,330.29 152.50,330.29 153.47,330.29 154.43,330.29 155.40,330.29 156.37,330.29 157.33,330.29 158.30,330.29 159.27,330.29 160.23,330.29 161.20,330.29 162.17,330.29 163.13,330.29 164.10,330.29 165.07,330.29 166.03,330.29 167.00,330.29 167.97,330.29 168.93,330.29 169.90,330.29 170.87,330.29 171.83,330.29 172.80,330.29 173.77,330.29 174.73,330.29 175.70,330.29 176.67,330.29 177.63,330.29 178.60,330.29 179.57,330.29 180.53,330.29 181.50,330.29 182.47,330.29 183.43,330.29 184.40,330.29 185.37,330.29 186.33,330.29 187.30,330.29 188.27,330.29 189.23,330.29 190.20,330.29 191.17,330.29 192.13,330.29 193.10,330.29 194.07,330.29 195.03,330.29 196.00,330.29 196.97,330.29 197.93,330.29 198.90,330.29 199.87,330.29 200.83,330.29 201.80,330.29 202.77,330.29 203.73,330.29 204.70,330.29 205.67,330.29 206.63,330.29 207.60,330.29 208.57,330.29 209.53,330.29 210.50,330.29 211.47,330.29 212.43,330.29 213.40,330.29 214.37,330.29 215.33,330.29 216.30,330.29 217.27,330.29 218.23,330.29 219.20,330.29 220.17,330.29 221.13,330.29 222.10,330.29 223.07,330.29 224.03,330.29 225.00,330.29 225.97,330.29 226.93,330.29 227.90,330.29 228.87,330.29 229.83,330.29 230.80,330.29 231.77,330.29 232.73,330.29 233.70,330.29 234.67,330.29 235.63,330.29 236.60,330.29 237.57,330.29 238.53,330.29 239.50,330.29 240.47,330.29 241.43,330.29 242.40,330.29 243.37,330.29 244.33,330.29 245.30,330.29 246.27,330.29 247.23,330.29 248.20,330.29 249.17,330.29 250.13,330.29 251.10,330.29 252.07,330.29 253.03,330.29 254.00,330.29 254.97,330.29 255.93,330.29 256.90,330.29 257.87,330.29 258.83,330.29 259.80,330.29 260.77,330.29 261.73,330.29 262.70,330.29 263.67,330.29 264.63,330.29 265.60,330.29 266.57,330.29 267.53,330.29 268.50,330.29 269.47,330.29 270.43,330.29 271.40,330.29 272.37,330.29 273.33,330.29 274.30,330.29 275.27,330.29 276.23,330.29 277.20,330.29 278.17,330.29 279.13,330.29 280.10,330.29 281.07,330.29 282.03,330.29 283.00,330.29 283.97,330.29 284.93,330.29 285.90,330.29 286.87,330.29 287.83,330.29 288.80,330.29 289.77,330.29 290.73,330.29 291.70,330.29 292.67,330.29 293.63,330.29 294.60,330.29 295.57,330.29 296.53,330.29 297.50,330.29 298.47,330.29 299.43,330.29 300.40,330.29 301.37,330.29 302.33,330.29 303.30,330.29 304.27,330.29 305.23,330.29 306.20,330.29 307.17,330.29 308.13,330.29 309.10,330.29 310.07,330.29 311.03,330.29 312.00,330.29 312.97,330.29 313.93,330.29 314.90,330.29 315.87,330.29 316.83,330.29 317.80,330.29 318.77,330.29 319.73,330.29 320.70,330.29 321.67,330.29 322.63,330.29 323.60,330.29 324.57,330.29 325.53,330.29 326.50,330.29 327.47,330.29 328.43,330.29 329.40,330.29 330.37,330.29 331.33,330.29 332.30,330.29 333.27,330.29 334.23,330.29 335.20,330.29 336.17,330.29 337.13,330.29 338.10,330.29 339.07,330.29 340.03,330.29 341.00,330.29 341.97,330.29 342.93,330.29 343.90,330.29 344.87,330.29 345.83,330.29 346.80,330.29 347.77,330.29 348.73,330.29 349.70,330.29 350.67,330.29 351.63,330.29 352.60,330.29 353.57,330.29 354.53,330.29 355.50,330.29 356.47,330.29 357.43,330.29 358.40,330.29 359.37,330.29 360.33,330.29 361.30,330.29 362.27,330.29 363.23,330.29 364.20,330.29 365.17,330.29 366.13,330.29 367.10,330.29 368.07,330.29 369.03,330.29 370.00,330.29 370.97,330.29 371.93,330.29 372.90,330.29 373.87,330.29 374.83,330.29 375.80,330.29 376.77,330.29 377.73,330.29 378.70,330.29 379.67,330.29 380.63,330.29 381.60,330.29 382.57,330.29 383.53,330.29 384.50,330.29 385.47,330.29 386.43,330.29 387.40,330.29 388.37,330.29 389.33,330.29 390.30,330.29 391.27,330.29 392.23,330.29 393.20,330.29 394.17,330.29 395.13,330.29 396.10,330.29 397.07,330.29 398.03,330.29 399.00,330.29 399.97,330.29 400.93,330.29 401.90,330.29 402.87,330.29 403.83,330.29 404.80,330.29 405.77,330.29 406.73,330.29 407.70,330.29 408.67,330.29 409.63,330.29 410.60,330.29 411.57,330.29 412.53,330.29 413.50,330.29 414.47,330.29 415.43,330.29 416.40,330.29 417.37,330.29 418.33,330.29 419.30,330.29 420.27,330.29 421.23,330.29 422.20,330.29 423.17,330.29 424.13,330.29 425.10,330.29 426.07,330.29 427.03,330.29 428.00,330.29 428.97,330.29 429.93,330.29 430.90,330.29 431.87,330.29 432.83,330.29 433.80,330.29 434.77,330.29 435.73,330.29 436.70,330.29 437.67,330.29 438.63,330.29 439.60,330.29 440.57,330.29 441.53,330.29 442.50,330.29 443.47,330.29 444.43,330.29 445.40,330.29 446.37,330.29 447.33,330.29 448.30,330.29 449.27,330.29 450.23,330.29 451.20,330.29 452.17,330.29 453.13,330.29 454.10,330.29 455.07,330.29 456.03,330.29 457.00,330.29 457.97,330.29 458.93,330.29 459.90,330.29 460.87,330.29 461.83,330.29 462.80,330.29 463.77,330.29 464.73,330.29 465.70,330.29 466.67,330.29 467.63,330.29 468.60,330.29 469.57,330.29 470.53,330.29 471.50,330.29 472.47,330.29 473.43,330.29 474.40,330.29 475.37,330.29 476.33,330.29 477.30,330.29 478.27,330.29 479.23,330.29 480.20,330.29 481.17,330.29 482.13,330.29 483.10,330.29 484.07,330.29 485.03,330.29 486.00,330.29 486.97,330.29 487.93,330.29 488.90,330.29 489.87,330.29 490.83,330.29 491.80,330.29 492.77,330.29 493.73,330.29 494.70,330.29 495.67,330.28 496.63,330.28 497.60,330.27 498.57,330.26 499.53,330.25 500.50,330.24 501.47,330.22 502.43,330.20 503.40,330.17 504.37,330.14 505.33,330.09 506.30,330.05 507.27,329.99 508.23,329.92 509.20,329.84 510.17,329.74 511.13,329.63 512.10,329.51 513.07,329.36 514.03,329.20 515.00,329.02 515.97,328.81 516.93,328.58 517.90,328.32 518.87,328.03 519.83,327.71 520.80,327.36 521.77,326.97 522.73,326.55 523.70,326.08 524.67,325.58 525.63,325.04 526.60,324.45 527.57,323.81 528.53,323.13 529.50,322.39 530.47,321.61 531.43,320.77 532.40,319.88 533.37,318.94 534.33,317.93 535.30,316.87 536.27,315.75 537.23,314.57 538.20,313.34 539.17,312.04 540.13,310.67 541.10,309.25 542.07,307.76 543.03,306.22 544.00,304.61 544.97,302.94 545.93,301.20 546.90,299.41 547.87,297.55 548.83,295.64 549.80,293.67 550.77,291.63 551.73,289.55 552.70,287.40 553.67,285.20 554.63,282.95 555.60,280.65 556.57,278.30 557.53,275.90 558.50,273.45 559.47,270.96 560.43,268.43 561.40,265.86 562.37,263.25 563.33,260.61 564.30,257.93 565.27,255.22 566.23,252.49 567.20,249.73 568.17,246.94 569.13,244.13 570.10,241.31 571.07,238.47 572.03,235.61 573.00,232.74 573.97,229.87 574.93,226.99 575.90,224.10 576.87,221.22 577.83,218.33 578.80,215.45 579.77,212.57 580.73,209.71 581.70,206.85 582.67,204.00 583.63,201.17 584.60,198.36 585.57,195.57 586.53,192.79 587.50,190.04 588.47,187.31 589.43,184.61 590.40,181.94 591.37,179.29 592.33,176.68 593.30,174.10 594.27,171.55 595.23,169.04 596.20,166.56 597.17,164.12 598.13,161.72 599.10,159.36 600.07,157.04 601.03,154.76 602.00,152.52 602.97,150.32 603.93,148.17 604.90,146.06 605.87,143.99 606.83,141.97 607.80,139.99 608.77,138.06 609.73,136.17 610.70,134.33 611.67,132.54 612.63,130.78 613.60,129.08 614.57,127.42 615.53,125.80 616.50,124.23 617.47,122.70 618.43,121.22 619.40,119.78 620.37,118.38 621.33,117.03 622.30,115.72 623.27,114.45 624.23,113.22 625.20,112.03 626.17,110.88 627.13,109.77 628.10,108.70 629.07,107.67 630.03,106.68 631.00,105.72 631.97,104.80 632.93,103.91 633.90,103.06 634.87,102.24 635.83,101.46 636.80,100.70 637.77,99.98 638.73,99.29 639.70,98.62 640.67,97.99 641.63,97.38 642.60,96.80 643.57,96.25 644.53,95.72 645.50,95.22 646.47,94.74 647.43,94.29 648.40,93.86 649.37,93.44 650.33,93.05 651.30,92.68 652.27,92.33 653.23,92.00 654.20,91.69 655.17,91.39 656.13,91.11 657.10,90.84 658.07,90.59 659.03,90.36 660.00,90.14 660.97,89.93 661.93,89.73 662.90,89.55 663.87,89.38 664.83,89.22 665.80,89.07 666.77,88.93 667.73,88.80 668.70,88.68 669.67,88.56 670.63,88.46 671.60,88.36 672.57,88.27 673.53,88.19 674.50,88.11 675.47,88.04 676.43,87.97 677.40,87.91 678.37,87.86 679.33,87.80 680.30,87.76 681.27,87.72 682.23,87.68 683.20,87.64 684.17,87.61 685.13,87.58 686.10,87.55 687.07,87.53 688.03,87.51 689.00,87.49 689.97,87.47 690.93,87.46 691.90,87.44 692.87,87.43 693.83,87.42 694.80,87.41 695.77,87.40 696.73,87.39 697.70,87.39 698.67,87.38 699.63,87.38 700.60,87.37 701.57,87.37 702.53,87.37 703.50,87.36 704.47,87.36 705.43,87.36 706.40,87.36 707.37,87.36 708.33,87.36 709.30,87.36 710.27,87.36 711.23,87.35 712.20,87.35 713.17,87.35 714.13,87.35 715.10,87.35 716.07,87.35 717.03,87.35 718.00,87.35 718.97,87.35 719.93,87.35 720.90,87.35 721.87,87.35 722.83,87.35 723.80,87.35 724.77,87.35 725.73,87.35 726.70,87.35 727.67,87.35 728.63,87.35 729.60,87.35 730.57,87.35 731.53,87.35 732.50,87.35 733.47,87.35 734.43,87.35 735.40,87.35 736.37,87.35 737.33,87.35 738.30,87.35 739.27,87.35 740.23,87.35 741.20,87.35 742.17,87.35 743.13,87.35 744.10,87.35 745.07,87.35 746.03,87.35 747.00,87.35 747.97,87.35 748.93,87.35 749.90,87.35 750.87,87.35 751.83,87.35 752.80,87.35 753.77,87.36 754.73,87.36 755.70,87.36 756.67,87.36 757.63,87.36 758.60,87.36 759.57,87.36 760.53,87.37 761.50,87.37 762.47,87.37 763.43,87.38 764.40,87.38 765.37,87.38 766.33,87.39 767.30,87.40 768.27,87.40 769.23,87.41 770.20,87.42 771.17,87.43 772.13,87.45 773.10,87.46 774.07,87.48 775.03,87.50 776.00,87.52 776.97,87.54 777.93,87.56 778.90,87.59 779.87,87.62 780.83,87.65 781.80,87.69 782.77,87.73 783.73,87.77 784.70,87.82 785.67,87.87 786.63,87.93 787.60,87.99 788.57,88.06 789.53,88.13 790.50,88.21 791.47,88.30 792.43,88.39 793.40,88.49 794.37,88.60 795.33,88.71 796.30,88.84 797.27,88.97 798.23,89.12 799.20,89.27 800.17,89.43 801.13,89.61 802.10,89.80 803.07,89.99 804.03,90.21 805.00,90.43 805.97,90.67 806.93,90.93 807.90,91.20 808.87,91.48 809.83,91.78 810.80,92.10 811.77,92.44 812.73,92.80 813.70,93.18 814.67,93.57 815.63,93.99 816.60,94.43 817.57,94.89 818.53,95.38 819.50,95.89 820.47,96.43 821.43,96.99 822.40,97.57 823.37,98.19 824.33,98.83 825.30,99.50 826.27,100.21 827.23,100.94 828.20,101.70 829.17,102.50 830.13,103.33 831.10,104.19 832.07,105.09 833.03,106.02 834.00,106.99 834.97,108.00 835.93,109.04 836.90,110.12 837.87,111.24 838.83,112.40 839.80,113.60 840.77,114.85 841.73,116.13 842.70,117.45 843.67,118.82 844.63,120.23 845.60,121.69 846.57,123.18 847.53,124.72 848.50,126.31 849.47,127.94 850.43,129.62 851.40,131.34 852.37,133.10 853.33,134.92 854.30,136.77 855.27,138.67 856.23,140.62 857.20,142.61 858.17,144.65 859.13,146.73 860.10,148.85 861.07,151.02 862.03,153.23 863.00,155.48 863.97,157.77 864.93,160.11 865.90,162.48 866.87,164.90 867.83,167.35 868.80,169.84 869.77,172.36 870.73,174.92 871.70,177.51 872.67,180.13 873.63,182.79 874.60,185.47 875.57,188.18 876.53,190.92 877.50,193.67 878.47,196.46 879.43,199.26 880.40,202.08 881.37,204.91 882.33,207.76 883.30,210.62 884.27,213.49 885.23,216.37 886.20,219.25 887.17,222.14 888.13,225.02 889.10,227.91 890.07,230.79 891.03,233.66 892.00,236.52 892.97,239.37 893.93,242.21 894.90,245.03 895.87,247.83 896.83,250.61 897.80,253.37 898.77,256.09 899.73,258.79 900.70,261.46 901.67,264.09 902.63,266.69 903.60,269.25 904.57,271.76 905.53,274.24 906.50,276.67 907.47,279.06 908.43,281.39 909.40,283.68 910.37,285.91 911.33,288.09 912.30,290.22 913.27,292.29 914.23,294.30 915.20,296.26 916.17,298.15 917.13,299.99 918.10,301.76 919.07,303.48 920.03,305.13 921.00,306.72 921.97,308.25 922.93,309.71 923.90,311.11 924.87,312.46 925.83,313.74 926.80,314.96 927.77,316.12 928.73,317.22 929.70,318.26 930.67,319.24 931.63,320.17 932.60,321.05 933.57,321.87 934.53,322.63 935.50,323.35 936.47,324.02 937.43,324.64 938.40,325.21 939.37,325.75 940.33,326.24 941.30,326.69 942.27,327.10 943.23,327.47 944.20,327.81 945.17,328.12 946.13,328.40 947.10,328.65 948.07,328.88 949.03,329.08 950.00,329.26 950.97,329.41 951.93,329.55 952.90,329.67 953.87,329.77 954.83,329.86 955.80,329.94 956.77,330.01 957.73,330.06 958.70,330.11 959.67,330.15 960.63,330.18 961.60,330.21 962.57,330.23 963.53,330.24 964.50,330.26 965.47,330.27 966.43,330.27 967.40,330.28 968.37,330.28 969.33,330.29 970.30,330.29 971.27,330.29 972.23,330.29 973.20,330.29 974.17,330.29 975.13,330.29 976.10,330.29 977.07,330.29 978.03,330.29 979.00,330.29 979.97,330.29 980.93,330.29 981.90,330.29 982.87,330.29 983.83,330.29 984.80,330.29 985.77,330.29 986.73,330.29 987.70,330.29 988.67,330.29 989.63,330.29 990.60,330.29 991.57,330.29 992.53,330.29 993.50,330.29 994.47,330.29 995.43,330.29 996.40,330.29 997.37,330.29 998.33,330.29 999.30,330.29 1000.27,330.29 1001.23,330.29 1002.20,330.29 1003.17,330.29 1004.13,330.29 1005.10,330.29 1006.07,330.29 1007.03,330.29 1008.00,330.29 1008.97,330.29 1009.93,330.29 1010.90,330.29 1011.87,330.29 1012.83,330.29 1013.80,330.29 1014.77,330.29 1015.73,330.29 1016.70,330.29 1017.67,330.29 1018.63,330.29 1019.60,330.29 1020.57,330.29 1021.53,330.29 1022.50,330.29 1023.47,330.29 1024.43,330.29 1025.40,330.29 1026.37,330.29 1027.33,330.29 1028.30,330.29 1029.27,330.29 1030.23,330.29 1031.20,330.29 1032.17,330.29 1033.13,330.29 1034.10,330.29 1035.07,330.29 1036.03,330.29 1037.00,330.29 1037.97,330.29 1038.93,330.29 1039.90,330.29 1040.87,330.29 1041.83,330.29 1042.80,330.29 1043.77,330.29 1044.73,330.29 1045.70,330.29 1046.67,330.29 1047.63,330.29 1048.60,330.29 1049.57,330.29 1050.53,330.29 1051.50,330.29 1052.47,330.29 1053.43,330.29 1054.40,330.29 1055.37,330.29 1056.33,330.29 1057.30,330.29 1058.27,330.29 1059.23,330.29 1060.20,330.29 1061.17,330.29 1062.13,330.29 1063.10,330.29 1064.07,330.29 1065.03,330.29 1066.00,330.29 1066.97,330.29 1067.93,330.29 1068.90,330.29 1069.87,330.29 1070.83,330.29 1071.80,330.29 1072.77,330.29 1073.73,330.29 1074.70,330.29 1075.67,330.29 1076.63,330.29 1077.60,330.29 1078.57,330.29 1079.53,330.29 1080.50,330.29 1081.47,330.29 1082.43,330.29 1083.40,330.29 1084.37,330.29 1085.33,330.29 1086.30,330.29 1087.27,330.29 1088.23,330.29 1089.20,330.29 1090.17,330.29 1091.13,330.29 1092.10,330.29 1093.07,330.29 1094.03,330.29 1095.00,330.29 1095.97,330.29 1096.93,330.29 1097.90,330.29 1098.87,330.29 1099.83,330.29 1100.80,330.29 1101.77,330.29 1102.73,330.29 1103.70,330.29 1104.67,330.29 1105.63,330.29 1106.60,330.29 1107.57,330.29 1108.53,330.29 1109.50,330.29 1110.47,330.29 1111.43,330.29 1112.40,330.29 1113.37,330.29 1114.33,330.29 1115.30,330.29 1116.27,330.29 1117.23,330.29 1118.20,330.29 1119.17,330.29 1120.13,330.29 1121.10,330.29 1122.07,330.29 1123.03,330.29 1124.00,330.29 1124.97,330.29 1125.93,330.29 1126.90,330.29 1127.87,330.29 1128.83,330.29 1129.80,330.29 1130.77,330.29 1131.73,330.29 1132.70,330.29 1133.67,330.29 1134.63,330.29 1135.60,330.29 1136.57,330.29 1137.53,330.29 1138.50,330.29 1139.47,330.29 1140.43,330.29 1141.40,330.29 1142.37,330.29 1143.33,330.29 1144.30,330.29 1145.27,330.29 1146.23,330.29 1147.20,330.29 1148.17,330.29 1149.13,330.29 1150.10,330.29 1151.07,330.29 1152.03,330.29 1153.00,330.29 1153.97,330.29 1154.93,330.29 1155.90,330.29 1156.87,330.29 1157.83,330.29 1158.80,330.29 1159.77,330.29 1160.73,330.29 1161.70,330.29 1162.67,330.29 1163.63,330.29 1164.60,330.29 1165.57,330.29 1166.53,330.29 1167.50,330.29 1168.47,330.29 1169.43,330.29 1170.40,330.29 1171.37,330.29 1172.33,330.29 1173.30,330.29 1174.27,330.29 1175.23,330.29 1176.20,330.29 1177.17,330.29 1178.13,330.29 1179.10,330.29 1180.07,330.29 1181.03,330.29 1182.00,330.29 1182.97,330.29 1183.93,330.29 1184.90,330.29 1185.87,330.29 1186.83,330.29 1187.80,330.29 1188.77,330.29 1189.73,330.29 1190.70,330.29 1191.67,330.29 1192.63,330.29 1193.60,330.29 1194.57,330.29 1195.53,330.29 1196.50,330.29 1197.47,330.29 1198.43,330.29 1199.40,330.29 1200.37,330.29 1201.33,330.29 1202.30,330.29 1203.27,330.29 1204.23,330.29 1205.20,330.29 1206.17,330.29 1207.13,330.29 1208.10,330.29 1209.07,330.29 1210.03,330.29 1211.00,330.29 1211.97,330.29 1212.93,330.29 1213.90,330.29 1214.87,330.29 1215.83,330.29 1216.80,330.29 1217.77,330.29 1218.73,330.29 1219.70,330.29 1220.67,330.29 1221.63,330.29 1222.60,330.29 1223.57,330.29 1224.53,330.29 1225.50,330.29 1226.47,330.29 1227.43,330.29 1228.40,330.29 1229.37,330.29 1230.33,330.29 1231.30,330.29 1232.27,330.29 1233.23,330.29 1234.20,330.29 1235.17,330.29 1236.13,330.29 1237.10,330.29 1238.07,330.29 1239.03,330.29 1239.99,330.29"/>
<polyline fill="none" stroke="#0b7285" stroke-width="3" points="80.00,673.97 80.97,673.97 81.93,673.97 82.90,673.97 83.87,673.97 84.83,673.97 85.80,673.97 86.77,673.97 87.73,673.97 88.70,673.97 89.67,673.97 90.63,673.97 91.60,673.97 92.57,673.97 93.53,673.97 94.50,673.97 95.47,673.97 96.43,673.97 97.40,673.97 98.37,673.97 99.33,673.97 100.30,673.97 101.27,673.97 102.23,673.97 103.20,673.97 104.17,673.97 105.13,673.97 106.10,673.97 107.07,673.97 108.03,673.97 109.00,673.97 109.97,673.97 110.93,673.97 111.90,673.97 112.87,673.97 113.83,673.97 114.80,673.97 115.77,673.97 116.73,673.97 117.70,673.97 118.67,673.97 119.63,673.97 120.60,673.97 121.57,673.97 122.53,673.97 123.50,673.97 124.47,673.97 125.43,673.97 126.40,673.97 127.37,673.97 128.33,673.97 129.30,673.97 130.27,673.97 131.23,673.97 132.20,673.97 133.17,673.97 134.13,673.97 135.10,673.97 136.07,673.97 137.03,673.97 138.00,673.97 138.97,673.97 139.93,673.97 140.90,673.97 141.87,673.97 142.83,673.97 143.80,673.97 144.77,673.97 145.73,673.97 146.70,673.97 147.67,673.97 148.63,673.97 149.60,673.97 150.57,673.97 151.53,673.97 152.50,673.97 153.47,673.97 154.43,673.97 155.40,673.97 156.37,673.97 157.33,673.97 158.30,673.97 159.27,673.97 160.23,673.97 161.20,673.97 162.17,673.97 163.13,673.97 164.10,673.97 165.07,673.97 166.03,673.97 167.00,673.97 167.97,673.97 168.93,673.97 169.90,673.97 170.87,673.97 171.83,673.97 172.80,673.97 173.77,673.97 174.73,673.97 175.70,673.97 176.67,673.97 177.63,673.97 178.60,673.97 179.57,673.97 180.53,673.97 181.50,673.97 182.47,673.97 183.43,673.97 184.40,673.97 185.37,673.97 186.33,673.97 187.30,673.97 188.27,673.97 189.23,673.97 190.20,673.97 191.17,673.97 192.13,673.97 193.10,673.97 194.07,673.97 195.03,673.97 196.00,673.97 196.97,673.97 197.93,673.97 198.90,673.97 199.87,673.97 200.83,673.97 201.80,673.97 202.77,673.97 203.73,673.97 204.70,673.97 205.67,673.97 206.63,673.97 207.60,673.97 208.57,673.97 209.53,673.97 210.50,673.97 211.47,673.97 212.43,673.97 213.40,673.97 214.37,673.97 215.33,673.97 216.30,673.97 217.27,673.97 218.23,673.97 219.20,673.97 220.17,673.97 221.13,673.97 222.10,673.97 223.07,673.97 224.03,673.97 225.00,673.97 225.97,673.97 226.93,673.97 227.90,673.97 228.87,673.97 229.83,673.97 230.80,673.97 231.77,673.97 232.73,673.97 233.70,673.97 234.67,673.97 235.63,673.97 236.60,673.97 237.57,673.97 238.53,673.97 239.50,673.97 240.47,673.97 241.43,673.97 242.40,673.97 243.37,673.97 244.33,673.97 245.30,673.97 246.27,673.97 247.23,673.97 248.20,673.97 249.17,673.97 250.13,673.97 251.10,673.97 252.07,673.97 253.03,673.97 254.00,673.97 254.97,673.97 255.93,673.97 256.90,673.97 257.87,673.97 258.83,673.97 259.80,673.97 260.77,673.97 261.73,673.97 262.70,673.97 263.67,673.97 264.63,673.97 265.60,673.97 266.57,673.97 267.53,673.97 268.50,673.97 269.47,673.97 270.43,673.97 271.40,673.97 272.37,673.97 273.33,673.97 274.30,673.97 275.27,673.97 276.23,673.97 277.20,673.97 278.17,673.97 279.13,673.97 280.10,673.97 281.07,673.97 282.03,673.97 283.00,673.97 283.97,673.97 284.93,673.97 285.90,673.97 286.87,673.97 287.83,673.97 288.80,673.97 289.77,673.97 290.73,673.97 291.70,673.97 292.67,673.97 293.63,673.97 294.60,673.97 295.57,673.97 296.53,673.97 297.50,673.97 298.47,673.97 299.43,673.97 300.40,673.97 301.37,673.97 302.33,673.97 303.30,673.97 304.27,673.97 305.23,673.97 306.20,673.97 307.17,673.97 308.13,673.97 309.10,673.97 310.07,673.97 311.03,673.97 312.00,673.97 312.97,673.97 313.93,673.97 314.90,673.97 315.87,673.97 316.83,673.97 317.80,673.97 318.77,673.97 319.73,673.97 320.70,673.97 321.67,673.97 322.63,673.97 323.60,673.97 324.57,673.97 325.53,673.97 326.50,673.97 327.47,673.97 328.43,673.97 329.40,673.97 330.37,673.97 331.33,673.97 332.30,673.97 333.27,673.97 334.23,673.97 335.20,673.97 336.17,673.97 337.13,673.97 338.10,673.97 339.07,673.97 340.03,673.97 341.00,673.97 341.97,673.97 342.93,673.97 343.90,673.97 344.87,673.97 345.83,673.97 346.80,673.97 347.77,673.97 348.73,673.97 349.70,673.97 350.67,673.97 351.63,673.97 352.60,673.97 353.57,673.97 354.53,673.97 355.50,673.97 356.47,673.97 357.43,673.97 358.40,673.97 359.37,673.97 360.33,673.97 361.30,673.97 362.27,673.97 363.23,673.97 364.20,673.97 365.17,673.97 366.13,673.97 367.10,673.97 368.07,673.97 369.03,673.97 370.00,673.97 370.97,673.97 371.93,673.97 372.90,673.97 373.87,673.97 374.83,673.97 375.80,673.97 376.77,673.97 377.73,673.97 378.70,673.97 379.67,673.97 380.63,673.97 381.60,673.97 382.57,673.97 383.53,673.97 384.50,673.97 385.47,673.97 386.43,673.97 387.40,673.97 388.37,673.97 389.33,673.97 390.30,673.97 391.27,673.97 392.23,673.97 393.20,673.97 394.17,673.97 395.13,673.97 396.10,673.97 397.07,673.97 398.03,673.97 399.00,673.97 399.97,673.97 400.93,673.97 401.90,673.97 402.87,673.97 403.83,673.97 404.80,673.97 405.77,673.97 406.73,673.97 407.70,673.97 408.67,673.97 409.63,673.97 410.60,673.97 411.57,673.97 412.53,673.97 413.50,673.97 414.47,673.97 415.43,673.97 416.40,673.97 417.37,673.97 418.33,673.97 419.30,673.97 420.27,673.97 421.23,673.97 422.20,673.97 423.17,673.97 424.13,673.97 425.10,673.97 426.07,673.97 427.03,673.97 428.00,673.97 428.97,673.97 429.93,673.97 430.90,673.97 431.87,673.97 432.83,673.97 433.80,673.97 434.77,673.97 435.73,673.97 436.70,673.97 437.67,673.97 438.63,673.97 439.60,673.97 440.57,673.97 441.53,673.97 442.50,673.97 443.47,673.97 444.43,673.97 445.40,673.97 446.37,673.97 447.33,673.97 448.30,673.97 449.27,673.97 450.23,673.97 451.20,673.97 452.17,673.97 453.13,673.97 454.10,673.97 455.07,673.97 456.03,673.97 457.00,673.97 457.97,673.97 458.93,673.97 459.90,673.97 460.87,673.97 461.83,673.97 462.80,673.97 463.77,673.97 464.73,673.97 465.70,673.97 466.67,673.97 467.63,673.97 468.60,673.97 469.57,673.97 470.53,673.97 471.50,673.97 472.47,673.97 473.43,673.97 474.40,673.97 475.37,673.97 476.33,673.97 477.30,673.97 478.27,673.97 479.23,673.97 480.20,673.97 481.17,673.97 482.13,673.97 483.10,673.97 484.07,673.97 485.03,673.97 486.00,673.97 486.97,673.97 487.93,673.97 488.90,673.97 489.87,673.97 490.83,673.97 491.80,673.97 492.77,673.97 493.73,673.97 494.70,673.96 495.67,673.96 496.63,673.95 497.60,673.95 498.57,673.94 499.53,673.93 500.50,673.91 501.47,673.90 502.43,673.87 503.40,673.85 504.37,673.81 505.33,673.77 506.30,673.72 507.27,673.66 508.23,673.59 509.20,673.51 510.17,673.42 511.13,673.31 512.10,673.18 513.07,673.04 514.03,672.88 515.00,672.69 515.97,672.49 516.93,672.25 517.90,671.99 518.87,671.71 519.83,671.39 520.80,671.03 521.77,670.65 522.73,670.22 523.70,669.76 524.67,669.26 525.63,668.71 526.60,668.12 527.57,667.49 528.53,666.80 529.50,666.07 530.47,665.29 531.43,664.45 532.40,663.56 533.37,662.61 534.33,661.61 535.30,660.55 536.27,659.43 537.23,658.25 538.20,657.01 539.17,655.71 540.13,654.35 541.10,652.93 542.07,651.44 543.03,649.89 544.00,648.28 544.97,646.61 545.93,644.88 546.90,643.09 547.87,641.23 548.83,639.32 549.80,637.34 550.77,635.31 551.73,633.22 552.70,631.08 553.67,628.88 554.63,626.63 555.60,624.33 556.57,621.98 557.53,619.58 558.50,617.13 559.47,614.64 560.43,612.11 561.40,609.54 562.37,606.93 563.33,604.29 564.30,601.61 565.27,598.90 566.23,596.17 567.20,593.40 568.17,590.62 569.13,587.81 570.10,584.98 571.07,582.14 572.03,579.29 573.00,576.42 573.97,573.55 574.93,570.66 575.90,567.78 576.87,564.89 577.83,562.01 578.80,559.13 579.77,556.25 580.73,553.38 581.70,550.53 582.67,547.68 583.63,544.85 584.60,542.04 585.57,539.24 586.53,536.47 587.50,533.72 588.47,530.99 589.43,528.29 590.40,525.61 591.37,522.97 592.33,520.36 593.30,517.77 594.27,515.23 595.23,512.71 596.20,510.24 597.17,507.80 598.13,505.40 599.10,503.03 600.07,500.71 601.03,498.43 602.00,496.19 602.97,494.00 603.93,491.84 604.90,489.73 605.87,487.67 606.83,485.65 607.80,483.67 608.77,481.74 609.73,479.85 610.70,478.01 611.67,476.21 612.63,474.46 613.60,472.75 614.57,471.09 615.53,469.48 616.50,467.90 617.47,466.38 618.43,464.89 619.40,463.45 620.37,462.06 621.33,460.70 622.30,459.39 623.27,458.12 624.23,456.89 625.20,455.71 626.17,454.56 627.13,453.45 628.10,452.38 629.07,451.35 630.03,450.35 631.00,449.40 631.97,448.47 632.93,447.59 633.90,446.74 634.87,445.92 635.83,445.13 636.80,444.38 637.77,443.65 638.73,442.96 639.70,442.30 640.67,441.67 641.63,441.06 642.60,440.48 643.57,439.93 644.53,439.40 645.50,438.90 646.47,438.42 647.43,437.97 648.40,437.53 649.37,437.12 650.33,436.73 651.30,436.36 652.27,436.01 653.23,435.68 654.20,435.36 655.17,435.07 656.13,434.78 657.10,434.52 658.07,434.27 659.03,434.04 660.00,433.81 660.97,433.61 661.93,433.41 662.90,433.23 663.87,433.06 664.83,432.90 665.80,432.75 666.77,432.61 667.73,432.48 668.70,432.35 669.67,432.24 670.63,432.13 671.60,432.04 672.57,431.95 673.53,431.86 674.50,431.79 675.47,431.71 676.43,431.65 677.40,431.59 678.37,431.53 679.33,431.48 680.30,431.43 681.27,431.39 682.23,431.35 683.20,431.32 684.17,431.29 685.13,431.26 686.10,431.23 687.07,431.21 688.03,431.19 689.00,431.17 689.97,431.15 690.93,431.13 691.90,431.12 692.87,431.11 693.83,431.10 694.80,431.09 695.77,431.08 696.73,431.07 697.70,431.06 698.67,431.06 699.63,431.05 700.60,431.05 701.57,431.05 702.53,431.04 703.50,431.04 704.47,431.04 705.43,431.04 706.40,431.04 707.37,431.03 708.33,431.03 709.30,431.03 710.27,431.03 711.23,431.03 712.20,431.03 713.17,431.03 714.13,431.03 715.10,431.03 716.07,431.03 717.03,431.03 718.00,431.03 718.97,431.03 719.93,431.03 720.90,431.03 721.87,431.03 722.83,431.03 723.80,431.03 724.77,431.03 725.73,431.03 726.70,431.03 727.67,431.03 728.63,431.03 729.60,431.03 730.57,431.03 731.53,431.03 732.50,431.03 733.47,431.03 734.43,431.03 735.40,431.03 736.37,431.03 737.33,431.03 738.30,431.03 739.27,431.03 740.23,431.03 741.20,431.03 742.17,431.03 743.13,431.03 744.10,431.03 745.07,431.03 746.03,431.03 747.00,431.03 747.97,431.03 748.93,431.03 749.90,431.03 750.87,431.03 751.83,431.03 752.80,431.03 753.77,431.03 754.73,431.03 755.70,431.03 756.67,431.03 757.63,431.04 758.60,431.04 759.57,431.04 760.53,431.04 761.50,431.04 762.47,431.05 763.43,431.05 764.40,431.06 765.37,431.06 766.33,431.07 767.30,431.07 768.27,431.08 769.23,431.09 770.20,431.10 771.17,431.11 772.13,431.12 773.10,431.14 774.07,431.15 775.03,431.17 776.00,431.19 776.97,431.21 777.93,431.24 778.90,431.27 779.87,431.30 780.83,431.33 781.80,431.37 782.77,431.41 783.73,431.45 784.70,431.50 785.67,431.55 786.63,431.61 787.60,431.67 788.57,431.74 789.53,431.81 790.50,431.89 791.47,431.97 792.43,432.07 793.40,432.17 794.37,432.28 795.33,432.39 796.30,432.52 797.27,432.65 798.23,432.79 799.20,432.95 800.17,433.11 801.13,433.29 802.10,433.47 803.07,433.67 804.03,433.88 805.00,434.11 805.97,434.35 806.93,434.60 807.90,434.87 808.87,435.16 809.83,435.46 810.80,435.78 811.77,436.12 812.73,436.48 813.70,436.85 814.67,437.25 815.63,437.67 816.60,438.11 817.57,438.57 818.53,439.06 819.50,439.57 820.47,440.10 821.43,440.66 822.40,441.25 823.37,441.87 824.33,442.51 825.30,443.18 826.27,443.88 827.23,444.61 828.20,445.38 829.17,446.18 830.13,447.00 831.10,447.87 832.07,448.77 833.03,449.70 834.00,450.67 834.97,451.67 835.93,452.72 836.90,453.80 837.87,454.92 838.83,456.08 839.80,457.28 840.77,458.52 841.73,459.81 842.70,461.13 843.67,462.50 844.63,463.91 845.60,465.36 846.57,466.86 847.53,468.40 848.50,469.99 849.47,471.62 850.43,473.29 851.40,475.01 852.37,476.78 853.33,478.59 854.30,480.45 855.27,482.35 856.23,484.30 857.20,486.29 858.17,488.32 859.13,490.40 860.10,492.53 861.07,494.69 862.03,496.90 863.00,499.16 863.97,501.45 864.93,503.78 865.90,506.16 866.87,508.57 867.83,511.02 868.80,513.51 869.77,516.04 870.73,518.59 871.70,521.19 872.67,523.81 873.63,526.46 874.60,529.15 875.57,531.86 876.53,534.59 877.50,537.35 878.47,540.13 879.43,542.93 880.40,545.75 881.37,548.59 882.33,551.44 883.30,554.30 884.27,557.17 885.23,560.05 886.20,562.93 887.17,565.81 888.13,568.70 889.10,571.59 890.07,574.46 891.03,577.34 892.00,580.20 892.97,583.05 893.93,585.89 894.90,588.71 895.87,591.51 896.83,594.29 897.80,597.04 898.77,599.77 899.73,602.47 900.70,605.13 901.67,607.77 902.63,610.36 903.60,612.92 904.57,615.44 905.53,617.92 906.50,620.35 907.47,622.73 908.43,625.07 909.40,627.35 910.37,629.59 911.33,631.77 912.30,633.90 913.27,635.97 914.23,637.98 915.20,639.93 916.17,641.83 917.13,643.66 918.10,645.44 919.07,647.15 920.03,648.80 921.00,650.39 921.97,651.92 922.93,653.39 923.90,654.79 924.87,656.13 925.83,657.41 926.80,658.63 927.77,659.79 928.73,660.89 929.70,661.94 930.67,662.92 931.63,663.85 932.60,664.72 933.57,665.54 934.53,666.31 935.50,667.03 936.47,667.69 937.43,668.32 938.40,668.89 939.37,669.42 940.33,669.91 941.30,670.36 942.27,670.77 943.23,671.15 944.20,671.49 945.17,671.80 946.13,672.08 947.10,672.33 948.07,672.56 949.03,672.76 950.00,672.93 950.97,673.09 951.93,673.23 952.90,673.35 953.87,673.45 954.83,673.54 955.80,673.62 956.77,673.68 957.73,673.74 958.70,673.79 959.67,673.82 960.63,673.86 961.60,673.88 962.57,673.90 963.53,673.92 964.50,673.93 965.47,673.94 966.43,673.95 967.40,673.96 968.37,673.96 969.33,673.96 970.30,673.97 971.27,673.97 972.23,673.97 973.20,673.97 974.17,673.97 975.13,673.97 976.10,673.97 977.07,673.97 978.03,673.97 979.00,673.97 979.97,673.97 980.93,673.97 981.90,673.97 982.87,673.97 983.83,673.97 984.80,673.97 985.77,673.97 986.73,673.97 987.70,673.97 988.67,673.97 989.63,673.97 990.60,673.97 991.57,673.97 992.53,673.97 993.50,673.97 994.47,673.97 995.43,673.97 996.40,673.97 997.37,673.97 998.33,673.97 999.30,673.97 1000.27,673.97 1001.23,673.97 1002.20,673.97 1003.17,673.97 1004.13,673.97 1005.10,673.97 1006.07,673.97 1007.03,673.97 1008.00,673.97 1008.97,673.97 1009.93,673.97 1010.90,673.97 1011.87,673.97 1012.83,673.97 1013.80,673.97 1014.77,673.97 1015.73,673.97 1016.70,673.97 1017.67,673.97 1018.63,673.97 1019.60,673.97 1020.57,673.97 1021.53,673.97 1022.50,673.97 1023.47,673.97 1024.43,673.97 1025.40,673.97 1026.37,673.97 1027.33,673.97 1028.30,673.97 1029.27,673.97 1030.23,673.97 1031.20,673.97 1032.17,673.97 1033.13,673.97 1034.10,673.97 1035.07,673.97 1036.03,673.97 1037.00,673.97 1037.97,673.97 1038.93,673.97 1039.90,673.97 1040.87,673.97 1041.83,673.97 1042.80,673.97 1043.77,673.97 1044.73,673.97 1045.70,673.97 1046.67,673.97 1047.63,673.97 1048.60,673.97 1049.57,673.97 1050.53,673.97 1051.50,673.97 1052.47,673.97 1053.43,673.97 1054.40,673.97 1055.37,673.97 1056.33,673.97 1057.30,673.97 1058.27,673.97 1059.23,673.97 1060.20,673.97 1061.17,673.97 1062.13,673.97 1063.10,673.97 1064.07,673.97 1065.03,673.97 1066.00,673.97 1066.97,673.97 1067.93,673.97 1068.90,673.97 1069.87,673.97 1070.83,673.97 1071.80,673.97 1072.77,673.97 1073.73,673.97 1074.70,673.97 1075.67,673.97 1076.63,673.97 1077.60,673.97 1078.57,673.97 1079.53,673.97 1080.50,673.97 1081.47,673.97 1082.43,673.97 1083.40,673.97 1084.37,673.97 1085.33,673.97 1086.30,673.97 1087.27,673.97 1088.23,673.97 1089.20,673.97 1090.17,673.97 1091.13,673.97 1092.10,673.97 1093.07,673.97 1094.03,673.97 1095.00,673.97 1095.97,673.97 1096.93,673.97 1097.90,673.97 1098.87,673.97 1099.83,673.97 1100.80,673.97 1101.77,673.97 1102.73,673.97 1103.70,673.97 1104.67,673.97 1105.63,673.97 1106.60,673.97 1107.57,673.97 1108.53,673.97 1109.50,673.97 1110.47,673.97 1111.43,673.97 1112.40,673.97 1113.37,673.97 1114.33,673.97 1115.30,673.97 1116.27,673.97 1117.23,673.97 1118.20,673.97 1119.17,673.97 1120.13,673.97 1121.10,673.97 1122.07,673.97 1123.03,673.97 1124.00,673.97 1124.97,673.97 1125.93,673.97 1126.90,673.97 1127.87,673.97 1128.83,673.97 1129.80,673.97 1130.77,673.97 1131.73,673.97 1132.70,673.97 1133.67,673.97 1134.63,673.97 1135.60,673.97 1136.57,673.97 1137.53,673.97 1138.50,673.97 1139.47,673.97 1140.43,673.97 1141.40,673.97 1142.37,673.97 1143.33,673.97 1144.30,673.97 1145.27,673.97 1146.23,673.97 1147.20,673.97 1148.17,673.97 1149.13,673.97 1150.10,673.97 1151.07,673.97 1152.03,673.97 1153.00,673.97 1153.97,673.97 1154.93,673.97 1155.90,673.97 1156.87,673.97 1157.83,673.97 1158.80,673.97 1159.77,673.97 1160.73,673.97 1161.70,673.97 1162.67,673.97 1163.63,673.97 1164.60,673.97 1165.57,673.97 1166.53,673.97 1167.50,673.97 1168.47,673.97 1169.43,673.97 1170.40,673.97 1171.37,673.97 1172.33,673.97 1173.30,673.97 1174.27,673.97 1175.23,673.97 1176.20,673.97 1177.17,673.97 1178.13,673.97 1179.10,673.97 1180.07,673.97 1181.03,673.97 1182.00,673.97 1182.97,673.97 1183.93,673.97 1184.90,673.97 1185.87,673.97 1186.83,673.97 1187.80,673.97 1188.77,673.97 1189.73,673.97 1190.70,673.97 1191.67,673.97 1192.63,673.97 1193.60,673.97 1194.57,673.97 1195.53,673.97 1196.50,673.97 1197.47,673.97 1198.43,673.97 1199.40,673.97 1200.37,673.97 1201.33,673.97 1202.30,673.97 1203.27,673.97 1204.23,673.97 1205.20,673.97 1206.17,673.97 1207.13,673.97 1208.10,673.97 1209.07,673.97 1210.03,673.97 1211.00,673.97 1211.97,673.97 1212.93,673.97 1213.90,673.97 1214.87,673.97 1215.83,673.97 1216.80,673.97 1217.77,673.97 1218.73,673.97 1219.70,673.97 1220.67,673.97 1221.63,673.97 1222.60,673.97 1223.57,673.97 1224.53,673.97 1225.50,673.97 1226.47,673.97 1227.43,673.97 1228.40,673.97 1229.37,673.97 1230.33,673.97 1231.30,673.97 1232.27,673.97 1233.23,673.97 1234.20,673.97 1235.17,673.97 1236.13,673.97 1237.10,673.97 1238.07,673.97 1239.03,673.97 1239.99,673.97"/>
<text x="640.00" y="34" text-anchor="middle" font-family="Arial" font-size="24" fill="#111827">Courbes actuelles: luminosite et temperature</text>
<text x="640.00" y="56" text-anchor="middle" font-family="Arial" font-size="13" fill="#4b5563">Gamma 2.5, sans plateau, lever 08:14 - coucher 18:43 (Europe/Paris)</text>
<text x="88" y="88" font-family="Arial" font-size="13" fill="#7c3aed">Luminosite (%)</text>
<text x="88" y="423.0" font-family="Arial" font-size="13" fill="#0b7285">Temperature (K)</text>
</svg>