<svg xmlns="http://www.w3.org/2000/svg" width="1240" height="520">
<rect width="100%" height="100%" fill="#ffffff"/>
<rect x="463.22" y="72" width="493.56" height="390" fill="#fff3bf" fill-opacity="0.45"/>
<line x1="75.00" y1="72" x2="75.00" y2="462" stroke="#eef2f7" stroke-width="1"/>
<text x="75.00" y="495" text-anchor="middle" font-family="Arial" font-size="12" fill="#4b5563">0:00</text>
<line x1="169.17" y1="72" x2="169.17" y2="462" stroke="#eef2f7" stroke-width="1"/>
<text x="169.17" y="495" text-anchor="middle" font-family="Arial" font-size="12" fill="#4b5563">2:00</text>
<line x1="263.33" y1="72" x2="263.33" y2="462" stroke="#eef2f7" stroke-width="1"/>
<text x="263.33" y="495" text-anchor="middle" font-family="Arial" font-size="12" fill="#4b5563">4:00</text>
<line x1="357.50" y1="72" x2="357.50" y2="462" stroke="#eef2f7" stroke-width="1"/>
<text x="357.50" y="495" text-anchor="middle" font-family="Arial" font-size="12" fill="#4b5563">6:00</text>
<line x1="451.67" y1="72" x2="451.67" y2="462" stroke="#eef2f7" stroke-width="1"/>
<text x="451.67" y="495" text-anchor="middle" font-family="Arial" font-size="12" fill="#4b5563">8:00</text>
<line x1="545.83" y1="72" x2="545.83" y2="462" stroke="#eef2f7" stroke-width="1"/>
<text x="545.83" y="495" text-anchor="middle" font-family="Arial" font-size="12" fill="#4b5563">10:00</text>
<line x1="640.00" y1="72" x2="640.00" y2="462" stroke="#eef2f7" stroke-width="1"/>
<text x="640.00" y="495" text-anchor="middle" font-family="Arial" font-size="12" fill="#4b5563">12:00</text>
<line x1="734.17" y1="72" x2="734.17" y2="462" stroke="#eef2f7" stroke-width="1"/>
<text x="734.17" y="495" text-anchor="middle" font-family="Arial" font-size="12" fill="#4b5563">14:00</text>
<line x1="828.33" y1="72" x2="828.33" y2="462" stroke="#eef2f7" stroke-width="1"/>
<text x="828.33" y="495" text-anchor="middle" font-family="Arial" font-size="12" fill="#4b5563">16:00</text>
<line x1="922.50" y1="72" x2="922.50" y2="462" stroke="#eef2f7" stroke-width="1"/>
<text x="922.50" y="495" text-anchor="middle" font-family="Arial" font-size="12" fill="#4b5563">18:00</text>
<line x1="1016.67" y1="72" x2="1016.67" y2="462" stroke="#eef2f7" stroke-width="1"/>
<text x="1016.67" y="495" text-anchor="middle" font-family="Arial" font-size="12" fill="#4b5563">20:00</text>
<line x1="1110.83" y1="72" x2="1110.83" y2="462" stroke="#eef2f7" stroke-width="1"/>
<text x="1110.83" y="495" text-anchor="middle" font-family="Arial" font-size="12" fill="#4b5563">22:00</text>
<line x1="1205.00" y1="72" x2="1205.00" y2="462" stroke="#eef2f7" stroke-width="1"/>
<text x="1205.00" y="495" text-anchor="middle" font-family="Arial" font-size="12" fill="#4b5563">24:00</text>
<line x1="75" y1="462.00" x2="1205" y2="462.00" stroke="#eef2f7" stroke-width="1"/>
<text x="65" y="466.00" text-anchor="end" font-family="Arial" font-size="12" fill="#4b5563">2400</text>
<line x1="75" y1="416.12" x2="1205" y2="416.12" stroke="#eef2f7" stroke-width="1"/>
<text x="65" y="420.12" text-anchor="end" font-family="Arial" font-size="12" fill="#4b5563">2800</text>
<line x1="75" y1="370.24" x2="1205" y2="370.24" stroke="#eef2f7" stroke-width="1"/>
<text x="65" y="374.24" text-anchor="end" font-family="Arial" font-size="12" fill="#4b5563">3200</text>
<line x1="75" y1="324.35" x2="1205" y2="324.35" stroke="#eef2f7" stroke-width="1"/>
<text x="65" y="328.35" text-anchor="end" font-family="Arial" font-size="12" fill="#4b5563">3600</text>
<line x1="75" y1="278.47" x2="1205" y2="278.47" stroke="#eef2f7" stroke-width="1"/>
<text x="65" y="282.47" text-anchor="end" font-family="Arial" font-size="12" fill="#4b5563">4000</text>
<line x1="75" y1="232.59" x2="1205" y2="232.59" stroke="#eef2f7" stroke-width="1"/>
<text x="65" y="236.59" text-anchor="end" font-family="Arial" font-size="12" fill="#4b5563">4400</text>
<line x1="75" y1="186.71" x2="1205" y2="186.71" stroke="#eef2f7" stroke-width="1"/>
<text x="65" y="190.71" text-anchor="end" font-family="Arial" font-size="12" fill="#4b5563">4800</text>
<line x1="75" y1="140.82" x2="1205" y2="140.82" stroke="#eef2f7" stroke-width="1"/>
<text x="65" y="144.82" text-anchor="end" font-family="Arial" font-size="12" fill="#4b5563">5200</text>
<line x1="75" y1="94.94" x2="1205" y2="94.94" stroke="#eef2f7" stroke-width="1"/>
<text x="65" y="98.94" text-anchor="end" font-family="Arial" font-size="12" fill="#4b5563">5600</text>
<rect x="75" y="72" width="1130" height="390" fill="none" stroke="#9ca3af" stroke-width="1.2"/>
<polyline fill="none" stroke="#0b7285" stroke-width="3" points="75.00,427.59 75.94,427.59 76.88,427.59 77.83,427.59 78.77,427.59 79.71,427.59 80.65,427.59 81.59,427.59 82.53,427.59 83.47,427.59 84.42,427.59 85.36,427.59 86.30,427.59 87.24,427.59 88.18,427.59 89.12,427.59 90.07,427.59 91.01,427.59 91.95,427.59 92.89,427.59 93.83,427.59 94.78,427.59 95.72,427.59 96.66,427.59 97.60,427.59 98.54,427.59 99.48,427.59 100.43,427.59 101.37,427.59 102.31,427.59 103.25,427.59 104.19,427.59 105.13,427.59 106.08,427.59 107.02,427.59 107.96,427.59 108.90,427.59 109.84,427.59 110.78,427.59 111.72,427.59 112.67,427.59 113.61,427.59 114.55,427.59 115.49,427.59 116.43,427.59 117.38,427.59 118.32,427.59 119.26,427.59 120.20,427.59 121.14,427.59 122.08,427.59 123.03,427.59 123.97,427.59 124.91,427.59 125.85,427.59 126.79,427.59 127.73,427.59 128.67,427.59 129.62,427.59 130.56,427.59 131.50,427.59 132.44,427.59 133.38,427.59 134.32,427.59 135.27,427.59 136.21,427.59 137.15,427.59 138.09,427.59 139.03,427.59 139.97,427.59 140.92,427.59 141.86,427.59 142.80,427.59 143.74,427.59 144.68,427.59 145.62,427.59 146.57,427.59 147.51,427.59 148.45,427.59 149.39,427.59 150.33,427.59 151.28,427.59 152.22,427.59 153.16,427.59 154.10,427.59 155.04,427.59 155.98,427.59 156.93,427.59 157.87,427.59 158.81,427.59 159.75,427.59 160.69,427.59 161.63,427.59 162.57,427.59 163.52,427.59 164.46,427.59 165.40,427.59 166.34,427.59 167.28,427.59 168.23,427.59 169.17,427.59 170.11,427.59 171.05,427.59 171.99,427.59 172.93,427.59 173.88,427.59 174.82,427.59 175.76,427.59 176.70,427.59 177.64,427.59 178.58,427.59 179.53,427.59 180.47,427.59 181.41,427.59 182.35,427.59 183.29,427.59 184.23,427.59 185.17,427.59 186.12,427.59 187.06,427.59 188.00,427.59 188.94,427.59 189.88,427.59 190.82,427.59 191.77,427.59 192.71,427.59 193.65,427.59 194.59,427.59 195.53,427.59 196.47,427.59 197.42,427.59 198.36,427.59 199.30,427.59 200.24,427.59 201.18,427.59 202.12,427.59 203.07,427.59 204.01,427.59 204.95,427.59 205.89,427.59 206.83,427.59 207.78,427.59 208.72,427.59 209.66,427.59 210.60,427.59 211.54,427.59 212.48,427.59 213.43,427.59 214.37,427.59 215.31,427.59 216.25,427.59 217.19,427.59 218.13,427.59 219.07,427.59 220.02,427.59 220.96,427.59 221.90,427.59 222.84,427.59 223.78,427.59 224.72,427.59 225.67,427.59 226.61,427.59 227.55,427.59 228.49,427.59 229.43,427.59 230.37,427.59 231.32,427.59 232.26,427.59 233.20,427.59 234.14,427.59 235.08,427.59 236.02,427.59 236.97,427.59 237.91,427.59 238.85,427.59 239.79,427.59 240.73,427.59 241.67,427.59 242.62,427.59 243.56,427.59 244.50,427.59 245.44,427.59 246.38,427.59 247.32,427.59 248.27,427.59 249.21,427.59 250.15,427.59 251.09,427.59 252.03,427.59 252.97,427.59 253.92,427.59 254.86,427.59 255.80,427.59 256.74,427.59 257.68,427.59 258.62,427.59 259.57,427.59 260.51,427.59 261.45,427.59 262.39,427.59 263.33,427.59 264.27,427.59 265.22,427.59 266.16,427.59 267.10,427.59 268.04,427.59 268.98,427.59 269.92,427.59 270.87,427.59 271.81,427.59 272.75,427.59 273.69,427.59 274.63,427.59 275.57,427.59 276.52,427.59 277.46,427.59 278.40,427.59 279.34,427.59 280.28,427.59 281.23,427.59 282.17,427.59 283.11,427.59 284.05,427.59 284.99,427.59 285.93,427.59 286.88,427.59 287.82,427.59 288.76,427.59 289.70,427.59 290.64,427.59 291.58,427.59 292.52,427.59 293.47,427.59 294.41,427.59 295.35,427.59 296.29,427.59 297.23,427.59 298.18,427.59 299.12,427.59 300.06,427.59 301.00,427.59 301.94,427.59 302.88,427.59 303.83,427.59 304.77,427.59 305.71,427.59 306.65,427.59 307.59,427.59 308.53,427.59 309.48,427.59 310.42,427.59 311.36,427.59 312.30,427.59 313.24,427.59 314.18,427.59 315.12,427.59 316.07,427.59 317.01,427.59 317.95,427.59 318.89,427.59 319.83,427.59 320.77,427.59 321.72,427.59 322.66,427.59 323.60,427.59 324.54,427.59 325.48,427.59 326.43,427.59 327.37,427.59 328.31,427.59 329.25,427.59 330.19,427.59 331.13,427.59 332.07,427.59 333.02,427.59 333.96,427.59 334.90,427.59 335.84,427.59 336.78,427.59 337.73,427.59 338.67,427.59 339.61,427.59 340.55,427.59 341.49,427.59 342.43,427.59 343.38,427.59 344.32,427.59 345.26,427.59 346.20,427.59 347.14,427.59 348.08,427.59 349.03,427.59 349.97,427.59 350.91,427.59 351.85,427.59 352.79,427.59 353.73,427.59 354.68,427.59 355.62,427.59 356.56,427.59 357.50,427.59 358.44,427.59 359.38,427.59 360.32,427.59 361.27,427.59 362.21,427.59 363.15,427.59 364.09,427.59 365.03,427.59 365.98,427.59 366.92,427.59 367.86,427.59 368.80,427.59 369.74,427.59 370.68,427.59 371.62,427.59 372.57,427.59 373.51,427.59 374.45,427.59 375.39,427.59 376.33,427.59 377.28,427.59 378.22,427.59 379.16,427.59 380.10,427.59 381.04,427.59 381.98,427.59 382.93,427.59 383.87,427.59 384.81,427.59 385.75,427.59 386.69,427.59 387.63,427.59 388.58,427.59 389.52,427.59 390.46,427.59 391.40,427.59 392.34,427.59 393.28,427.59 394.23,427.59 395.17,427.59 396.11,427.59 397.05,427.59 397.99,427.59 398.93,427.59 399.88,427.59 400.82,427.59 401.76,427.59 402.70,427.59 403.64,427.59 404.58,427.59 405.52,427.59 406.47,427.59 407.41,427.59 408.35,427.59 409.29,427.59 410.23,427.59 411.18,427.59 412.12,427.59 413.06,427.59 414.00,427.59 414.94,427.59 415.88,427.59 416.82,427.59 417.77,427.59 418.71,427.59 419.65,427.59 420.59,427.59 421.53,427.59 422.48,427.59 423.42,427.59 424.36,427.59 425.30,427.59 426.24,427.59 427.18,427.59 428.12,427.59 429.07,427.59 430.01,427.59 430.95,427.59 431.89,427.59 432.83,427.59 433.77,427.59 434.72,427.59 435.66,427.59 436.60,427.59 437.54,427.59 438.48,427.59 439.43,427.59 440.37,427.59 441.31,427.59 442.25,427.59 443.19,427.59 444.13,427.59 445.07,427.59 446.02,427.59 446.96,427.59 447.90,427.59 448.84,427.59 449.78,427.59 450.73,427.59 451.67,427.59 452.61,427.59 453.55,427.59 454.49,427.59 455.43,427.59 456.37,427.59 457.32,427.59 458.26,427.59 459.20,427.59 460.14,427.59 461.08,427.59 462.03,427.59 462.97,427.59 463.91,427.59 464.85,427.59 465.79,427.59 466.73,427.59 467.67,427.59 468.62,427.59 469.56,427.59 470.50,427.59 471.44,427.59 472.38,427.58 473.33,427.58 474.27,427.58 475.21,427.57 476.15,427.56 477.09,427.55 478.03,427.53 478.97,427.51 479.92,427.48 480.86,427.45 481.80,427.40 482.74,427.34 483.68,427.28 484.62,427.19 485.57,427.09 486.51,426.98 487.45,426.84 488.39,426.68 489.33,426.50 490.27,426.29 491.22,426.05 492.16,425.77 493.10,425.47 494.04,425.13 494.98,424.74 495.93,424.32 496.87,423.85 497.81,423.33 498.75,422.77 499.69,422.15 500.63,421.48 501.57,420.75 502.52,419.96 503.46,419.11 504.40,418.20 505.34,417.22 506.28,416.18 507.23,415.06 508.17,413.88 509.11,412.63 510.05,411.30 510.99,409.90 511.93,408.42 512.88,406.86 513.82,405.24 514.76,403.53 515.70,401.74 516.64,399.88 517.58,397.94 518.53,395.92 519.47,393.83 520.41,391.65 521.35,389.41 522.29,387.08 523.23,384.68 524.17,382.21 525.12,379.67 526.06,377.05 527.00,374.36 527.94,371.61 528.88,368.79 529.83,365.91 530.77,362.96 531.71,359.96 532.65,356.89 533.59,353.77 534.53,350.60 535.47,347.38 536.42,344.10 537.36,340.79 538.30,337.42 539.24,334.02 540.18,330.58 541.12,327.11 542.07,323.61 543.01,320.07 543.95,316.51 544.89,312.93 545.83,309.32 546.77,305.70 547.72,302.07 548.66,298.42 549.60,294.77 550.54,291.10 551.48,287.44 552.43,283.77 553.37,280.11 554.31,276.45 555.25,272.81 556.19,269.17 557.13,265.54 558.08,261.93 559.02,258.34 559.96,254.77 560.90,251.22 561.84,247.69 562.78,244.19 563.73,240.73 564.67,237.29 565.61,233.88 566.55,230.51 567.49,227.18 568.43,223.89 569.38,220.63 570.32,217.42 571.26,214.25 572.20,211.12 573.14,208.04 574.08,205.01 575.02,202.02 575.97,199.08 576.91,196.19 577.85,193.35 578.79,190.56 579.73,187.83 580.67,185.15 581.62,182.51 582.56,179.94 583.50,177.41 584.44,174.94 585.38,172.53 586.32,170.17 587.27,167.86 588.21,165.61 589.15,163.41 590.09,161.27 591.03,159.18 591.98,157.14 592.92,155.16 593.86,153.23 594.80,151.36 595.74,149.53 596.68,147.76 597.62,146.04 598.57,144.37 599.51,142.76 600.45,141.19 601.39,139.67 602.33,138.20 603.27,136.78 604.22,135.40 605.16,134.07 606.10,132.79 607.04,131.55 607.98,130.35 608.92,129.20 609.87,128.09 610.81,127.02 611.75,125.99 612.69,125.00 613.63,124.05 614.58,123.13 615.52,122.26 616.46,121.42 617.40,120.61 618.34,119.84 619.28,119.10 620.23,118.39 621.17,117.71 622.11,117.06 623.05,116.45 623.99,115.86 624.93,115.30 625.88,114.76 626.82,114.25 627.76,113.77 628.70,113.31 629.64,112.87 630.58,112.46 631.52,112.06 632.47,111.69 633.41,111.34 634.35,111.00 635.29,110.69 636.23,110.39 637.17,110.11 638.12,109.84 639.06,109.59 640.00,109.36 640.94,109.14 641.88,108.93 642.83,108.74 643.77,108.56 644.71,108.39 645.65,108.23 646.59,108.08 647.53,107.94 648.47,107.81 649.42,107.69 650.36,107.58 651.30,107.48 652.24,107.38 653.18,107.29 654.13,107.21 655.07,107.14 656.01,107.07 656.95,107.00 657.89,106.94 658.83,106.89 659.77,106.84 660.72,106.80 661.66,106.75 662.60,106.72 663.54,106.68 664.48,106.65 665.42,106.62 666.37,106.60 667.31,106.58 668.25,106.56 669.19,106.54 670.13,106.52 671.07,106.51 672.02,106.49 672.96,106.48 673.90,106.47 674.84,106.46 675.78,106.46 676.73,106.45 677.67,106.44 678.61,106.44 679.55,106.43 680.49,106.43 681.43,106.43 682.38,106.42 683.32,106.42 684.26,106.42 685.20,106.42 686.14,106.42 687.08,106.42 688.02,106.41 688.97,106.41 689.91,106.41 690.85,106.41 691.79,106.41 692.73,106.41 693.67,106.41 694.62,106.41 695.56,106.41 696.50,106.41 697.44,106.41 698.38,106.41 699.33,106.41 700.27,106.41 701.21,106.41 702.15,106.41 703.09,106.41 704.03,106.41 704.98,106.41 705.92,106.41 706.86,106.41 707.80,106.41 708.74,106.41 709.68,106.41 710.62,106.41 711.57,106.41 712.51,106.41 713.45,106.41 714.39,106.41 715.33,106.41 716.27,106.41 717.22,106.41 718.16,106.41 719.10,106.41 720.04,106.41 720.98,106.41 721.92,106.41 722.87,106.41 723.81,106.41 724.75,106.41 725.69,106.41 726.63,106.41 727.58,106.41 728.52,106.41 729.46,106.41 730.40,106.41 731.34,106.41 732.28,106.42 733.23,106.42 734.17,106.42 735.11,106.42 736.05,106.42 736.99,106.42 737.93,106.43 738.88,106.43 739.82,106.43 740.76,106.44 741.70,106.44 742.64,106.45 743.58,106.45 744.52,106.46 745.47,106.47 746.41,106.48 747.35,106.49 748.29,106.50 749.23,106.51 750.18,106.53 751.12,106.54 752.06,106.56 753.00,106.58 753.94,106.61 754.88,106.63 755.83,106.66 756.77,106.69 757.71,106.73 758.65,106.77 759.59,106.81 760.53,106.86 761.48,106.91 762.42,106.96 763.36,107.02 764.30,107.09 765.24,107.16 766.18,107.24 767.12,107.32 768.07,107.41 769.01,107.51 769.95,107.62 770.89,107.73 771.83,107.85 772.78,107.98 773.72,108.13 774.66,108.28 775.60,108.44 776.54,108.61 777.48,108.80 778.42,109.00 779.37,109.21 780.31,109.43 781.25,109.67 782.19,109.93 783.13,110.20 784.08,110.48 785.02,110.79 785.96,111.11 786.90,111.45 787.84,111.81 788.78,112.19 789.72,112.59 790.67,113.01 791.61,113.45 792.55,113.92 793.49,114.41 794.43,114.93 795.38,115.47 796.32,116.04 797.26,116.64 798.20,117.27 799.14,117.92 800.08,118.61 801.02,119.33 801.97,120.08 802.91,120.86 803.85,121.68 804.79,122.53 805.73,123.42 806.67,124.35 807.62,125.31 808.56,126.31 809.50,127.36 810.44,128.44 811.38,129.56 812.32,130.73 813.27,131.94 814.21,133.19 815.15,134.49 816.09,135.83 817.03,137.23 817.98,138.66 818.92,140.15 819.86,141.68 820.80,143.27 821.74,144.90 822.68,146.59 823.62,148.32 824.57,150.11 825.51,151.95 826.45,153.84 827.39,155.79 828.33,157.79 829.27,159.84 830.22,161.95 831.16,164.11 832.10,166.32 833.04,168.59 833.98,170.92 834.92,173.29 835.87,175.73 836.81,178.21 837.75,180.75 838.69,183.35 839.63,186.00 840.58,188.70 841.52,191.45 842.46,194.25 843.40,197.11 844.34,200.01 845.28,202.97 846.23,205.97 847.17,209.02 848.11,212.11 849.05,215.26 849.99,218.44 850.93,221.67 851.88,224.93 852.82,228.24 853.76,231.59 854.70,234.97 855.64,238.38 856.58,241.83 857.52,245.31 858.47,248.81 859.41,252.35 860.35,255.90 861.29,259.48 862.23,263.08 863.17,266.70 864.12,270.33 865.06,273.97 866.00,277.62 866.94,281.28 867.88,284.94 868.83,288.61 869.77,292.27 870.71,295.93 871.65,299.59 872.59,303.23 873.53,306.86 874.48,310.48 875.42,314.07 876.36,317.65 877.30,321.20 878.24,324.73 879.18,328.22 880.12,331.69 881.07,335.11 882.01,338.50 882.95,341.85 883.89,345.15 884.83,348.41 885.77,351.62 886.72,354.77 887.66,357.88 888.60,360.92 889.54,363.91 890.48,366.84 891.43,369.70 892.37,372.50 893.31,375.23 894.25,377.89 895.19,380.49 896.13,383.01 897.08,385.46 898.02,387.83 898.96,390.13 899.90,392.36 900.84,394.50 901.78,396.58 902.72,398.57 903.67,400.48 904.61,402.32 905.55,404.08 906.49,405.76 907.43,407.37 908.37,408.90 909.32,410.35 910.26,411.73 911.20,413.03 912.14,414.27 913.08,415.43 914.03,416.52 914.97,417.54 915.91,418.50 916.85,419.39 917.79,420.22 918.73,420.99 919.68,421.70 920.62,422.35 921.56,422.95 922.50,423.50 923.44,424.00 924.38,424.46 925.32,424.87 926.27,425.24 927.21,425.57 928.15,425.87 929.09,426.13 930.03,426.36 930.97,426.56 931.92,426.73 932.86,426.89 933.80,427.02 934.74,427.13 935.68,427.22 936.63,427.30 937.57,427.36 938.51,427.42 939.45,427.46 940.39,427.49 941.33,427.52 942.28,427.54 943.22,427.55 944.16,427.57 945.10,427.57 946.04,427.58 946.98,427.58 947.92,427.59 948.87,427.59 949.81,427.59 950.75,427.59 951.69,427.59 952.63,427.59 953.57,427.59 954.52,427.59 955.46,427.59 956.40,427.59 957.34,427.59 958.28,427.59 959.23,427.59 960.17,427.59 961.11,427.59 962.05,427.59 962.99,427.59 963.93,427.59 964.88,427.59 965.82,427.59 966.76,427.59 967.70,427.59 968.64,427.59 969.58,427.59 970.52,427.59 971.47,427.59 972.41,427.59 973.35,427.59 974.29,427.59 975.23,427.59 976.17,427.59 977.12,427.59 978.06,427.59 979.00,427.59 979.94,427.59 980.88,427.59 981.83,427.59 982.77,427.59 983.71,427.59 984.65,427.59 985.59,427.59 986.53,427.59 987.48,427.59 988.42,427.59 989.36,427.59 990.30,427.59 991.24,427.59 992.18,427.59 993.12,427.59 994.07,427.59 995.01,427.59 995.95,427.59 996.89,427.59 997.83,427.59 998.77,427.59 999.72,427.59 1000.66,427.59 1001.60,427.59 1002.54,427.59 1003.48,427.59 1004.42,427.59 1005.37,427.59 1006.31,427.59 1007.25,427.59 1008.19,427.59 1009.13,427.59 1010.08,427.59 1011.02,427.59 1011.96,427.59 1012.90,427.59 1013.84,427.59 1014.78,427.59 1015.73,427.59 1016.67,427.59 1017.61,427.59 1018.55,427.59 1019.49,427.59 1020.43,427.59 1021.38,427.59 1022.32,427.59 1023.26,427.59 1024.20,427.59 1025.14,427.59 1026.08,427.59 1027.02,427.59 1027.97,427.59 1028.91,427.59 1029.85,427.59 1030.79,427.59 1031.73,427.59 1032.68,427.59 1033.62,427.59 1034.56,427.59 1035.50,427.59 1036.44,427.59 1037.38,427.59 1038.33,427.59 1039.27,427.59 1040.21,427.59 1041.15,427.59 1042.09,427.59 1043.03,427.59 1043.97,427.59 1044.92,427.59 1045.86,427.59 1046.80,427.59 1047.74,427.59 1048.68,427.59 1049.62,427.59 1050.57,427.59 1051.51,427.59 1052.45,427.59 1053.39,427.59 1054.33,427.59 1055.28,427.59 1056.22,427.59 1057.16,427.59 1058.10,427.59 1059.04,427.59 1059.98,427.59 1060.93,427.59 1061.87,427.59 1062.81,427.59 1063.75,427.59 1064.69,427.59 1065.63,427.59 1066.57,427.59 1067.52,427.59 1068.46,427.59 1069.40,427.59 1070.34,427.59 1071.28,427.59 1072.22,427.59 1073.17,427.59 1074.11,427.59 1075.05,427.59 1075.99,427.59 1076.93,427.59 1077.88,427.59 1078.82,427.59 1079.76,427.59 1080.70,427.59 1081.64,427.59 1082.58,427.59 1083.53,427.59 1084.47,427.59 1085.41,427.59 1086.35,427.59 1087.29,427.59 1088.23,427.59 1089.17,427.59 1090.12,427.59 1091.06,427.59 1092.00,427.59 1092.94,427.59 1093.88,427.59 1094.82,427.59 1095.77,427.59 1096.71,427.59 1097.65,427.59 1098.59,427.59 1099.53,427.59 1100.48,427.59 1101.42,427.59 1102.36,427.59 1103.30,427.59 1104.24,427.59 1105.18,427.59 1106.12,427.59 1107.07,427.59 1108.01,427.59 1108.95,427.59 1109.89,427.59 1110.83,427.59 1111.78,427.59 1112.72,427.59 1113.66,427.59 1114.60,427.59 1115.54,427.59 1116.48,427.59 1117.42,427.59 1118.37,427.59 1119.31,427.59 1120.25,427.59 1121.19,427.59 1122.13,427.59 1123.08,427.59 1124.02,427.59 1124.96,427.59 1125.90,427.59 1126.84,427.59 1127.78,427.59 1128.72,427.59 1129.67,427.59 1130.61,427.59 1131.55,427.59 1132.49,427.59 1133.43,427.59 1134.38,427.59 1135.32,427.59 1136.26,427.59 1137.20,427.59 1138.14,427.59 1139.08,427.59 1140.03,427.59 1140.97,427.59 1141.91,427.59 1142.85,427.59 1143.79,427.59 1144.73,427.59 1145.67,427.59 1146.62,427.59 1147.56,427.59 1148.50,427.59 1149.44,427.59 1150.38,427.59 1151.33,427.59 1152.27,427.59 1153.21,427.59 1154.15,427.59 1155.09,427.59 1156.03,427.59 1156.97,427.59 1157.92,427.59 1158.86,427.59 1159.80,427.59 1160.74,427.59 1161.68,427.59 1162.62,427.59 1163.57,427.59 1164.51,427.59 1165.45,427.59 1166.39,427.59 1167.33,427.59 1168.27,427.59 1169.22,427.59 1170.16,427.59 1171.10,427.59 1172.04,427.59 1172.98,427.59 1173.92,427.59 1174.87,427.59 1175.81,427.59 1176.75,427.59 1177.69,427.59 1178.63,427.59 1179.58,427.59 1180.52,427.59 1181.46,427.59 1182.40,427.59 1183.34,427.59 1184.28,427.59 1185.22,427.59 1186.17,427.59 1187.11,427.59 1188.05,427.59 1188.99,427.59 1189.93,427.59 1190.88,427.59 1191.82,427.59 1192.76,427.59 1193.70,427.59 1194.64,427.59 1195.58,427.59 1196.53,427.59 1197.47,427.59 1198.41,427.59 1199.35,427.59 1200.29,427.59 1201.23,427.59 1202.17,427.59 1203.12,427.59 1204.06,427.59 1204.99,427.59"/>
<text x="620.00" y="34" text-anchor="middle" font-family="Arial" font-size="24" fill="#111827">Courbe temperature aujourd hui</text>
<text x="620.00" y="56" text-anchor="middle" font-family="Arial" font-size="13" fill="#4b5563">Gamma 2.0, sans plateau, lever 08:14 - coucher 18:43</text>
<text x="83" y="90" font-family="Arial" font-size="13" fill="#0b7285">Kelvin (K)</text>
</svg>